  0
SECTION
  2
HEADER
  9
$ACADVER
  1
AC1009
  9
$DWGCODEPAGE
  3
ansi_936
  9
$INSBASE
 10
0.0
 20
0.0
 30
0.0
  9
$EXTMIN
 10
1.000000000000000E+20
 20
1.000000000000000E+20
 30
1.000000000000000E+20
  9
$EXTMAX
 10
-1.000000000000000E+20
 20
-1.000000000000000E+20
 30
-1.000000000000000E+20
  9
$LIMMIN
 10
0.0
 20
0.0
  9
$LIMMAX
 10
12.0
 20
9.0
  9
$ORTHOMODE
 70
     0
  9
$REGENMODE
 70
     1
  9
$FILLMODE
 70
     1
  9
$QTEXTMODE
 70
     0
  9
$MIRRTEXT
 70
     1
  9
$DRAGMODE
 70
     2
  9
$LTSCALE
 40
1.0
  9
$OSMODE
 70
    37
  9
$ATTMODE
 70
     1
  9
$TEXTSIZE
 40
0.2
  9
$TRACEWID
 40
0.05
  9
$TEXTSTYLE
  7
STANDARD
  9
$CLAYER
  8
0
  9
$CELTYPE
  6
BYLAYER
  9
$CECOLOR
 62
   256
  9
$DIMSCALE
 40
1.0
  9
$DIMASZ
 40
0.18
  9
$DIMEXO
 40
0.0625
  9
$DIMDLI
 40
0.38
  9
$DIMRND
 40
0.0
  9
$DIMDLE
 40
0.0
  9
$DIMEXE
 40
0.18
  9
$DIMTP
 40
0.0
  9
$DIMTM
 40
0.0
  9
$DIMTXT
 40
0.18
  9
$DIMCEN
 40
0.09
  9
$DIMTSZ
 40
0.0
  9
$DIMTOL
 70
     0
  9
$DIMLIM
 70
     0
  9
$DIMTIH
 70
     1
  9
$DIMTOH
 70
     1
  9
$DIMSE1
 70
     0
  9
$DIMSE2
 70
     0
  9
$DIMTAD
 70
     0
  9
$DIMZIN
 70
     0
  9
$DIMBLK
  1

  9
$DIMASO
 70
     1
  9
$DIMSHO
 70
     1
  9
$DIMPOST
  1

  9
$DIMAPOST
  1

  9
$DIMALT
 70
     0
  9
$DIMALTD
 70
     2
  9
$DIMALTF
 40
25.4
  9
$DIMLFAC
 40
1.0
  9
$DIMTOFL
 70
     0
  9
$DIMTVP
 40
0.0
  9
$DIMTIX
 70
     0
  9
$DIMSOXD
 70
     0
  9
$DIMSAH
 70
     0
  9
$DIMBLK1
  1

  9
$DIMBLK2
  1

  9
$DIMSTYLE
  2
STANDARD_ACAD
  9
$DIMCLRD
 70
     0
  9
$DIMCLRE
 70
     0
  9
$DIMCLRT
 70
     0
  9
$DIMTFAC
 40
1.0
  9
$DIMGAP
 40
0.09
  9
$LUNITS
 70
     2
  9
$LUPREC
 70
     2
  9
$SKETCHINC
 40
0.1
  9
$FILLETRAD
 40
0.5
  9
$AUNITS
 70
     0
  9
$AUPREC
 70
     0
  9
$MENU
  1
.
  9
$ELEVATION
 40
0.0
  9
$PELEVATION
 40
0.0
  9
$THICKNESS
 40
0.0
  9
$LIMCHECK
 70
     0
  9
$CHAMFERA
 40
0.0
  9
$CHAMFERB
 40
0.0
  9
$SKPOLY
 70
     0
  9
$TDCREATE
 40
2459290.678087442
  9
$TDUPDATE
 40
2459290.678101516
  9
$TDINDWG
 40
0.0000000116
  9
$TDUSRTIMER
 40
0.0000000116
  9
$USRTIMER
 70
     1
  9
$ANGBASE
 50
0.0
  9
$ANGDIR
 70
     0
  9
$PDMODE
 70
     0
  9
$PDSIZE
 40
0.0
  9
$PLINEWID
 40
0.0
  9
$COORDS
 70
     1
  9
$SPLFRAME
 70
     0
  9
$SPLINETYPE
 70
     6
  9
$SPLINESEGS
 70
     8
  9
$ATTDIA
 70
     0
  9
$ATTREQ
 70
     1
  9
$HANDLING
 70
     1
  9
$HANDSEED
  5
1B9
  9
$SURFTAB1
 70
     6
  9
$SURFTAB2
 70
     6
  9
$SURFTYPE
 70
     6
  9
$SURFU
 70
     6
  9
$SURFV
 70
     6
  9
$UCSNAME
  2

  9
$UCSORG
 10
0.0
 20
0.0
 30
0.0
  9
$UCSXDIR
 10
1.0
 20
0.0
 30
0.0
  9
$UCSYDIR
 10
0.0
 20
1.0
 30
0.0
  9
$PUCSNAME
  2

  9
$PUCSORG
 10
0.0
 20
0.0
 30
0.0
  9
$PUCSXDIR
 10
1.0
 20
0.0
 30
0.0
  9
$PUCSYDIR
 10
0.0
 20
1.0
 30
0.0
  9
$USERI1
 70
     0
  9
$USERI2
 70
     0
  9
$USERI3
 70
     0
  9
$USERI4
 70
     0
  9
$USERI5
 70
     0
  9
$USERR1
 40
0.0
  9
$USERR2
 40
0.0
  9
$USERR3
 40
0.0
  9
$USERR4
 40
0.0
  9
$USERR5
 40
0.0
  9
$WORLDVIEW
 70
     1
  9
$SHADEDGE
 70
     3
  9
$SHADEDIF
 70
    70
  9
$TILEMODE
 70
     1
  9
$MAXACTVP
 70
    64
  9
$PLIMCHECK
 70
     0
  9
$PEXTMIN
 10
1.000000000000000E+20
 20
1.000000000000000E+20
 30
1.000000000000000E+20
  9
$PEXTMAX
 10
-1.000000000000000E+20
 20
-1.000000000000000E+20
 30
-1.000000000000000E+20
  9
$PLIMMIN
 10
0.0
 20
0.0
  9
$PLIMMAX
 10
12.0
 20
9.0
  9
$UNITMODE
 70
     0
  9
$VISRETAIN
 70
     1
  9
$PLINEGEN
 70
     0
  9
$PSLTSCALE
 70
     1
  0
ENDSEC
  0
SECTION
  2
TABLES
  0
TABLE
  2
VPORT
 70
     1
  0
VPORT
  2
*ACTIVE
 70
     0
 10
0.0
 20
0.0
 11
1.0
 21
1.0
 12
10.42990654205607
 22
4.5
 13
0.0
 23
0.0
 14
0.5
 24
0.5
 15
0.5
 25
0.5
 16
0.0
 26
0.0
 36
1.0
 17
0.0
 27
0.0
 37
0.0
 40
9.0
 41
1.972972972850329
 42
50.0
 43
0.0
 44
0.0
 50
0.0
 51
0.0
 71
     0
 72
   100
 73
     1
 74
     3
 75
     0
 76
     0
 77
     0
 78
     0
  0
ENDTAB
  0
TABLE
  2
LTYPE
 70
     1
  0
LTYPE
  2
CONTINUOUS
 70
     0
  3
Solid line
 72
    65
 73
     0
 40
0.0
  0
ENDTAB
  0
TABLE
  2
LAYER
 70
     4
  0
LAYER
  2
0
 70
     0
 62
     7
  6
CONTINUOUS
  0
LAYER
  2
切线
 70
     0
 62
     7
  6
CONTINUOUS
  0
LAYER
  2
MAKE2D$可见线$曲线
 70
     0
 62
     7
  6
CONTINUOUS
  0
LAYER
  2
刻线
 70
     0
 62
     1
  6
CONTINUOUS
  0
ENDTAB
  0
TABLE
  2
STYLE
 70
     1
  0
STYLE
  2
STANDARD
 70
     0
 40
0.0
 41
1.0
 50
0.0
 71
     0
 42
0.2
  3
txt
  4

  0
ENDTAB
  0
TABLE
  2
VIEW
 70
     0
  0
ENDTAB
  0
TABLE
  2
UCS
 70
     0
  0
ENDTAB
  0
TABLE
  2
APPID
 70
     1
  0
APPID
  2
ACAD
 70
     0
  0
ENDTAB
  0
TABLE
  2
DIMSTYLE
 70
     1
  0
DIMSTYLE
  2
STANDARD_ACAD
 70
     0
  3

  4

  5

  6

  7

 40
1.0
 41
0.18
 42
0.0625
 43
0.38
 44
0.18
 45
0.0
 46
0.0
 47
0.0
 48
0.0
140
0.18
141
0.09
142
0.0
143
25.4
144
1.0
145
0.0
146
1.0
147
0.09
 71
     0
 72
     0
 73
     1
 74
     1
 75
     0
 76
     0
 77
     0
 78
     0
170
     0
171
     2
172
     0
173
     0
174
     0
175
     0
176
     0
177
     0
178
     0
  0
ENDTAB
  0
ENDSEC
  0
SECTION
  2
BLOCKS
  0
BLOCK
  8
0
  2
$MODEL_SPACE
 70
     0
 10
0.0
 20
0.0
 30
0.0
  3
$MODEL_SPACE
  1

  0
ENDBLK
  5
21
  8
0
  0
BLOCK
 67
     1
  8
0
  2
$PAPER_SPACE
 70
     0
 10
0.0
 20
0.0
 30
0.0
  3
$PAPER_SPACE
  1

  0
ENDBLK
  5
1D
 67
     1
  8
0
  0
ENDSEC
  0
SECTION
  2
ENTITIES
  0
LINE
  5
6F
  8
切线
 10
-18.92860708492082
 20
-28.0
 30
0.0
 11
280.0713929150792
 21
-28.0
 31
0.0
  0
LINE
  5
70
  8
切线
 10
280.0713929150792
 20
-28.0
 30
0.0
 11
280.0713929150792
 21
45.00666054942326
 31
0.0
  0
LINE
  5
71
  8
切线
 10
280.0713929150792
 20
45.00666054942326
 30
0.0
 11
-18.92860708492082
 21
45.00666054942326
 31
0.0
  0
LINE
  5
72
  8
切线
 10
-18.92860708492082
 20
45.00666054942326
 30
0.0
 11
-18.92860708492082
 21
-28.0
 31
0.0
  0
CIRCLE
  5
74
  8
MAKE2D$可见线$曲线
 62
     7
 10
258.1704275502431
 20
36.27726567342251
 30
0.0
 40
1.499999999999976
  0
LINE
  5
75
  8
MAKE2D$可见线$曲线
 62
     7
 10
277.1850291280659
 20
-8.516790035305853
 30
0.0
 11
276.7376282360948
 21
-11.73584773001455
 31
0.0
  0
LINE
  5
76
  8
MAKE2D$可见线$曲线
 62
     7
 10
276.7376282360948
 20
-11.73584773001455
 30
0.0
 11
274.4813460289072
 21
-13.44148268554541
 31
0.0
  0
LINE
  5
77
  8
MAKE2D$可见线$曲线
 62
     7
 10
274.4813460289072
 20
-13.44148268554541
 30
0.0
 11
268.5384702848297
 21
-12.61551180806027
 31
0.0
  0
LINE
  5
78
  8
MAKE2D$可见线$曲线
 62
     7
 10
268.5384702848297
 20
-12.61551180806027
 30
0.0
 11
268.1254848460871
 21
-15.58694968009905
 31
0.0
  0
LINE
  5
79
  8
MAKE2D$可见线$曲线
 62
     7
 10
268.1254848460871
 20
-15.58694968009905
 30
0.0
 11
266.1445262647278
 21
-15.3116260542707
 31
0.0
  0
LINE
  5
7A
  8
MAKE2D$可见线$曲线
 62
     7
 10
266.1445262647278
 20
-15.3116260542707
 30
0.0
 11
264.6828032949073
 21
-0.8335458741310671
 31
0.0
  0
LINE
  5
7B
  8
MAKE2D$可见线$曲线
 62
     7
 10
264.6325780700201
 20
-0.3360748430297047
 30
0.0
 11
263.1708551001996
 21
14.14200533710993
 31
0.0
  0
LINE
  5
7C
  8
MAKE2D$可见线$曲线
 62
     7
 10
263.1708551001996
 20
14.14200533710993
 30
0.0
 11
255.2529555159902
 21
28.8282149332696
 31
0.0
  0
ARC
  5
7D
  8
MAKE2D$可见线$曲线
 62
     7
 10
-258.1704275502432
 20
36.27726567342137
 30
0.0
 40
8.000000000000275
 50
291.3881370854764
 51
165.4331335440478
210
0.0
220
0.0
230
-1.0
  0
LINE
  5
7E
  8
MAKE2D$可见线$曲线
 62
     7
 10
265.9132657719314
 20
38.28934327450203
 30
0.0
 11
270.8763142591643
 21
19.19063579802164
 31
0.0
  0
LINE
  5
7F
  8
MAKE2D$可见线$曲线
 62
     7
 10
270.8763142591643
 20
19.19063579802164
 30
0.0
 11
271.6240227170683
 21
18.76390864006367
 31
0.0
  0
LINE
  5
80
  8
MAKE2D$可见线$曲线
 62
     7
 10
272.0582780272655
 20
18.51607336096562
 30
0.0
 11
272.8059864851695
 21
18.08934620300762
 31
0.0
  0
LINE
  5
81
  8
MAKE2D$可见线$曲线
 62
     7
 10
272.8059864851695
 20
18.08934620300762
 30
0.0
 11
272.3930010464268
 21
15.11790833096877
 31
0.0
  0
LINE
  5
82
  8
MAKE2D$可见线$曲线
 62
     7
 10
272.3930010464268
 20
15.11790833096877
 30
0.0
 11
278.3358767905045
 21
14.29193745348365
 31
0.0
  0
LINE
  5
83
  8
MAKE2D$可见线$曲线
 62
     7
 10
278.3358767905045
 20
14.29193745348365
 30
0.0
 11
280.0415117460354
 21
12.03565524629606
 31
0.0
  0
LINE
  5
84
  8
MAKE2D$可见线$曲线
 62
     7
 10
280.0415117460354
 20
12.03565524629606
 30
0.0
 11
279.0778790556361
 21
5.102300211538788
 31
0.0
  0
LINE
  5
85
  8
MAKE2D$可见线$曲线
 62
     7
 10
279.0778790556361
 20
5.102300211538788
 30
0.0
 11
277.9497379520423
 21
4.249482733773357
 31
0.0
  0
LINE
  5
86
  8
MAKE2D$可见线$曲线
 62
     7
 10
277.9497379520423
 20
4.249482733773357
 30
0.0
 11
276.5630669450908
 21
4.442209271853221
 31
0.0
  0
LINE
  5
87
  8
MAKE2D$可见线$曲线
 62
     7
 10
276.5630669450908
 20
4.442209271853221
 30
0.0
 11
276.8383905709192
 21
6.423167853212464
 31
0.0
  0
LINE
  5
88
  8
MAKE2D$可见线$曲线
 62
     7
 10
276.8383905709192
 20
6.423167853212464
 30
0.0
 11
274.0650485570163
 21
6.808620929372159
 31
0.0
  0
LINE
  5
89
  8
MAKE2D$可见线$曲线
 62
     7
 10
274.0650485570163
 20
6.808620929372159
 30
0.0
 11
273.7897249311879
 21
4.827662348012945
 31
0.0
  0
LINE
  5
8A
  8
MAKE2D$可见线$曲线
 62
     7
 10
273.7897249311879
 20
4.827662348012945
 30
0.0
 11
271.016382917285
 21
5.213115424172676
 31
0.0
  0
LINE
  5
8B
  8
MAKE2D$可见线$曲线
 62
     7
 10
271.016382917285
 20
5.213115424172676
 30
0.0
 11
269.9150884139715
 21
-2.710718901264185
 31
0.0
  0
LINE
  5
8C
  8
MAKE2D$可见线$曲线
 62
     7
 10
269.9150884139715
 20
-2.710718901264185
 30
0.0
 11
272.6884304278743
 21
-3.096171977423905
 31
0.0
  0
LINE
  5
8D
  8
MAKE2D$可见线$曲线
 62
     7
 10
272.6884304278743
 20
-3.096171977423905
 30
0.0
 11
272.413106802046
 21
-5.077130558783137
 31
0.0
  0
LINE
  5
8E
  8
MAKE2D$可见线$曲线
 62
     7
 10
272.413106802046
 20
-5.077130558783137
 30
0.0
 11
275.1864488159489
 21
-5.462583634942819
 31
0.0
  0
LINE
  5
8F
  8
MAKE2D$可见线$曲线
 62
     7
 10
275.1864488159489
 20
-5.462583634942819
 30
0.0
 11
275.4617724417773
 21
-3.481625053583626
 31
0.0
  0
LINE
  5
90
  8
MAKE2D$可见线$曲线
 62
     7
 10
275.4617724417773
 20
-3.481625053583626
 30
0.0
 11
276.8484434487288
 21
-3.674351591663504
 31
0.0
  0
LINE
  5
91
  8
MAKE2D$可见线$曲线
 62
     7
 10
276.8484434487288
 20
-3.674351591663504
 30
0.0
 11
277.7012609264942
 21
-4.802492695257323
 31
0.0
  0
LINE
  5
92
  8
MAKE2D$可见线$曲线
 62
     7
 10
277.7012609264942
 20
-4.802492695257323
 30
0.0
 11
277.253860034523
 21
-8.021550389966022
 31
0.0
  0
LINE
  5
93
  8
切线
 10
127.0713929150792
 20
23.40666054942301
 30
0.0
 11
129.0713929150792
 21
25.40666054942304
 31
0.0
  0
LINE
  5
94
  8
切线
 10
114.0713929150792
 20
25.40666054942301
 30
0.0
 11
116.0713929150792
 21
23.40666054942301
 31
0.0
  0
LINE
  5
95
  8
切线
 10
127.0713929150792
 20
38.40666054942301
 30
0.0
 11
129.0713929150792
 21
36.40666054942301
 31
0.0
  0
LINE
  5
96
  8
切线
 10
114.0713929150792
 20
36.40666054942301
 30
0.0
 11
116.0713929150792
 21
38.40666054942301
 31
0.0
  0
LINE
  5
97
  8
MAKE2D$可见线$曲线
 62
     7
 10
129.0713929150792
 20
36.40666054942301
 30
0.0
 11
129.0713929150792
 21
25.40666054942304
 31
0.0
  0
LINE
  5
98
  8
MAKE2D$可见线$曲线
 62
     7
 10
116.0713929150792
 20
38.40666054942301
 30
0.0
 11
127.0713929150792
 21
38.40666054942301
 31
0.0
  0
LINE
  5
99
  8
MAKE2D$可见线$曲线
 62
     7
 10
114.0713929150792
 20
25.40666054942301
 30
0.0
 11
114.0713929150792
 21
36.40666054942301
 31
0.0
  0
LINE
  5
9A
  8
MAKE2D$可见线$曲线
 62
     7
 10
127.0713929150792
 20
23.40666054942301
 30
0.0
 11
116.0713929150792
 21
23.40666054942301
 31
0.0
  0
LINE
  5
9C
  8
刻线
 10
170.5113929150792
 20
-10.0
 30
0.0
 11
170.5113929150792
 21
-21.44333945057701
 31
0.0
  0
LINE
  5
9D
  8
刻线
 10
148.7313929150791
 20
-10.0
 30
0.0
 11
148.7313929150791
 21
-21.44333945057701
 31
0.0
  0
LINE
  5
9E
  8
MAKE2D$可见线$曲线
 62
     7
 10
167.6213929150791
 20
40.75666054942322
 30
0.0
 11
167.6213929150791
 21
41.00666054942323
 31
0.0
  0
LINE
  5
9F
  8
MAKE2D$可见线$曲线
 62
     7
 10
167.6213929150791
 20
41.00666054942323
 30
0.0
 11
164.6213929150792
 21
44.00666054942326
 31
0.0
  0
LINE
  5
A0
  8
MAKE2D$可见线$曲线
 62
     7
 10
164.6213929150792
 20
44.00666054942326
 30
0.0
 11
154.6213929150791
 21
44.00666054942326
 31
0.0
  0
LINE
  5
A1
  8
MAKE2D$可见线$曲线
 62
     7
 10
154.6213929150791
 20
44.00666054942326
 30
0.0
 11
151.6213929150791
 21
41.00666054942332
 31
0.0
  0
LINE
  5
A2
  8
MAKE2D$可见线$曲线
 62
     7
 10
151.6213929150791
 20
41.00666054942332
 30
0.0
 11
151.6213929150791
 21
40.75666054942327
 31
0.0
  0
LINE
  5
A3
  8
MAKE2D$可见线$曲线
 62
     7
 10
151.6213929150792
 20
40.25666054942329
 30
0.0
 11
151.6213929150792
 21
40.00666054942326
 31
0.0
  0
LINE
  5
A4
  8
MAKE2D$可见线$曲线
 62
     7
 10
151.6213929150792
 20
40.00666054942326
 30
0.0
 11
153.6213929150792
 21
40.00666054942326
 31
0.0
  0
LINE
  5
A5
  8
MAKE2D$可见线$曲线
 62
     7
 10
153.6213929150792
 20
40.00666054942326
 30
0.0
 11
153.6213929150791
 21
34.80666035868848
 31
0.0
  0
LINE
  5
A6
  8
MAKE2D$可见线$曲线
 62
     7
 10
153.6213929150791
 20
34.80666035868848
 30
0.0
 11
157.6213929150793
 21
30.80666035868842
 31
0.0
  0
LINE
  5
A7
  8
MAKE2D$可见线$曲线
 62
     7
 10
157.6213929150793
 20
30.80666035868842
 30
0.0
 11
161.6213929150792
 21
30.80666035868842
 31
0.0
  0
LINE
  5
A8
  8
MAKE2D$可见线$曲线
 62
     7
 10
161.6213929150792
 20
30.80666035868842
 30
0.0
 11
165.6213929150792
 21
34.80666035868842
 31
0.0
  0
LINE
  5
A9
  8
MAKE2D$可见线$曲线
 62
     7
 10
165.6213929150792
 20
34.80666035868842
 30
0.0
 11
165.6213929150792
 21
40.00666054942326
 31
0.0
  0
LINE
  5
AA
  8
MAKE2D$可见线$曲线
 62
     7
 10
165.6213929150792
 20
40.00666054942326
 30
0.0
 11
167.6213929150792
 21
40.00666054942326
 31
0.0
  0
LINE
  5
AB
  8
MAKE2D$可见线$曲线
 62
     7
 10
167.6213929150792
 20
40.00666054942326
 30
0.0
 11
167.6213929150792
 21
40.25666054942325
 31
0.0
  0
LINE
  5
AC
  8
MAKE2D$可见线$曲线
 62
     7
 10
167.6213929150791
 20
20.707660549423
 30
0.0
 11
167.6213929150792
 21
20.957660549423
 31
0.0
  0
LINE
  5
AD
  8
MAKE2D$可见线$曲线
 62
     7
 10
167.6213929150792
 20
20.957660549423
 30
0.0
 11
165.6213929150792
 21
20.957660549423
 31
0.0
  0
LINE
  5
AE
  8
MAKE2D$可见线$曲线
 62
     7
 10
165.6213929150792
 20
20.957660549423
 30
0.0
 11
165.6213929150792
 21
26.15766188456701
 31
0.0
  0
LINE
  5
AF
  8
MAKE2D$可见线$曲线
 62
     7
 10
165.6213929150792
 20
26.15766188456701
 30
0.0
 11
161.6213929150792
 21
30.15766188456706
 31
0.0
  0
LINE
  5
B0
  8
MAKE2D$可见线$曲线
 62
     7
 10
161.6213929150792
 20
30.15766188456706
 30
0.0
 11
157.621392915079
 21
30.15766188456706
 31
0.0
  0
LINE
  5
B1
  8
MAKE2D$可见线$曲线
 62
     7
 10
157.621392915079
 20
30.15766188456706
 30
0.0
 11
153.621392915079
 21
26.15766188456701
 31
0.0
  0
LINE
  5
B2
  8
MAKE2D$可见线$曲线
 62
     7
 10
153.621392915079
 20
26.15766188456701
 30
0.0
 11
153.6213929150792
 21
20.957660549423
 31
0.0
  0
LINE
  5
B3
  8
MAKE2D$可见线$曲线
 62
     7
 10
153.6213929150792
 20
20.957660549423
 30
0.0
 11
151.6213929150792
 21
20.957660549423
 31
0.0
  0
LINE
  5
B4
  8
MAKE2D$可见线$曲线
 62
     7
 10
151.6213929150792
 20
20.957660549423
 30
0.0
 11
151.6213929150792
 21
20.707660549423
 31
0.0
  0
LINE
  5
B5
  8
MAKE2D$可见线$曲线
 62
     7
 10
151.6213929150792
 20
20.207660549423
 30
0.0
 11
151.6213929150792
 21
19.957660549423
 31
0.0
  0
LINE
  5
B6
  8
MAKE2D$可见线$曲线
 62
     7
 10
151.6213929150792
 20
19.957660549423
 30
0.0
 11
154.6213929150792
 21
16.957660549423
 31
0.0
  0
LINE
  5
B7
  8
MAKE2D$可见线$曲线
 62
     7
 10
154.6213929150792
 20
16.957660549423
 30
0.0
 11
164.6213929150793
 21
16.957660549423
 31
0.0
  0
LINE
  5
B8
  8
MAKE2D$可见线$曲线
 62
     7
 10
164.6213929150793
 20
16.957660549423
 30
0.0
 11
167.6213929150791
 21
19.957660549423
 31
0.0
  0
LINE
  5
B9
  8
MAKE2D$可见线$曲线
 62
     7
 10
167.6213929150791
 20
19.957660549423
 30
0.0
 11
167.6213929150791
 21
20.20766054942303
 31
0.0
  0
LINE
  5
BA
  8
MAKE2D$可见线$曲线
 62
     7
 10
60.3213929150792
 20
-21.99333945057674
 30
0.0
 11
76.57139291507917
 21
-21.99333945057674
 31
0.0
  0
LINE
  5
BB
  8
MAKE2D$可见线$曲线
 62
     7
 10
76.57139291507917
 20
-21.99333945057674
 30
0.0
 11
79.57139291507917
 21
-18.99333945057674
 31
0.0
  0
LINE
  5
BC
  8
MAKE2D$可见线$曲线
 62
     7
 10
79.57139291507917
 20
-18.99333945057674
 30
0.0
 11
79.57139291507917
 21
5.006660549423286
 31
0.0
  0
LINE
  5
BD
  8
MAKE2D$可见线$曲线
 62
     7
 10
59.82139291507916
 20
32.50666054942326
 30
0.0
 11
43.57139291507912
 21
32.50666054942326
 31
0.0
  0
LINE
  5
BE
  8
MAKE2D$可见线$曲线
 62
     7
 10
43.57139291507912
 20
32.50666054942326
 30
0.0
 11
40.57139291507923
 21
29.5066605494232
 31
0.0
  0
LINE
  5
BF
  8
MAKE2D$可见线$曲线
 62
     7
 10
40.57139291507923
 20
29.5066605494232
 30
0.0
 11
40.57139291507906
 21
-18.9933394505768
 31
0.0
  0
LINE
  5
C0
  8
MAKE2D$可见线$曲线
 62
     7
 10
40.57139291507906
 20
-18.9933394505768
 30
0.0
 11
43.5713929150792
 21
-21.99333945057674
 31
0.0
  0
LINE
  5
C1
  8
MAKE2D$可见线$曲线
 62
     7
 10
43.5713929150792
 20
-21.99333945057674
 30
0.0
 11
59.82139291507917
 21
-21.99333945057674
 31
0.0
  0
LINE
  5
C2
  8
MAKE2D$可见线$曲线
 62
     7
 10
79.57139291507917
 20
5.506660549423232
 30
0.0
 11
79.57139291507917
 21
29.50666054942326
 31
0.0
  0
LINE
  5
C3
  8
MAKE2D$可见线$曲线
 62
     7
 10
79.57139291507917
 20
29.50666054942326
 30
0.0
 11
76.57139291507917
 21
32.50666054942326
 31
0.0
  0
LINE
  5
C4
  8
MAKE2D$可见线$曲线
 62
     7
 10
76.57139291507917
 20
32.50666054942326
 30
0.0
 11
60.32139291507918
 21
32.50666054942326
 31
0.0
  0
LINE
  5
C5
  8
MAKE2D$可见线$曲线
 62
     7
 10
9.481393614702357
 20
-15.49395528376675
 30
0.0
 11
-2.219221518874463
 21
-15.49395528376675
 31
0.0
  0
LINE
  5
C6
  8
MAKE2D$可见线$曲线
 62
     7
 10
-2.219221518874463
 20
-15.49395528376675
 30
0.0
 11
-2.219221518874463
 21
-2.493339450576741
 31
0.0
  0
LINE
  5
C7
  8
MAKE2D$可见线$曲线
 62
     7
 10
-2.219221518874463
 20
-2.493339450576741
 30
0.0
 11
9.481393614702354
 21
-2.493339450576741
 31
0.0
  0
LINE
  5
C8
  8
MAKE2D$可见线$曲线
 62
     7
 10
9.98139361470236
 20
-2.493339450576741
 30
0.0
 11
21.68200874827917
 21
-2.493339450576741
 31
0.0
  0
LINE
  5
C9
  8
MAKE2D$可见线$曲线
 62
     7
 10
21.68200874827917
 20
-2.493339450576741
 30
0.0
 11
21.68200874827917
 21
-15.49395528376675
 31
0.0
  0
LINE
  5
CA
  8
MAKE2D$可见线$曲线
 62
     7
 10
21.68200874827917
 20
-15.49395528376675
 30
0.0
 11
9.981393614702357
 21
-15.49395528376675
 31
0.0
  0
ARC
  5
CB
  8
MAKE2D$可见线$曲线
 62
     7
 10
-10.57139291507809
 20
-8.493339450577055
 30
0.0
 40
5.000000000000001
 50
182.865087475133
 51
357.134912524867
210
0.0
220
0.0
230
-1.0
  0
ARC
  5
CC
  8
MAKE2D$可见线$曲线
 62
     7
 10
-10.57139291507809
 20
-8.493339450577052
 30
0.0
 40
4.999999999999998
 50
2.865087475132955
 51
177.134912524867
210
0.0
220
0.0
230
-1.0
  0
LINE
  5
CD
  8
刻线
 10
149.7313929150791
 20
3.728830274711498
 30
0.0
 11
169.5113929150792
 21
3.728830274711498
 31
0.0
  0
LINE
  5
CE
  8
刻线
 10
149.7313929150791
 20
16.457660549423
 30
0.0
 11
149.7313929150791
 21
-9.0
 31
0.0
  0
LINE
  5
CF
  8
刻线
 10
149.7313929150791
 20
-9.0
 30
0.0
 11
169.5113929150792
 21
-9.0
 31
0.0
  0
LINE
  5
D0
  8
刻线
 10
169.5113929150792
 20
-9.0
 30
0.0
 11
169.5113929150792
 21
16.457660549423
 31
0.0
  0
LINE
  5
D1
  8
刻线
 10
148.7313929150791
 20
16.457660549423
 30
0.0
 11
148.7313929150791
 21
-10.0
 31
0.0
  0
LINE
  5
D2
  8
刻线
 10
148.7313929150791
 20
-10.0
 30
0.0
 11
170.5113929150792
 21
-10.0
 31
0.0
  0
LINE
  5
D3
  8
刻线
 10
170.5113929150792
 20
-10.0
 30
0.0
 11
170.5113929150792
 21
16.457660549423
 31
0.0
  0
LINE
  5
D4
  8
刻线
 10
98.64822773201456
 20
-17.37041584686547
 30
0.0
 11
99.64822773201456
 21
-17.94184441829404
 31
0.0
  0
LINE
  5
D5
  8
刻线
 10
98.64822773201456
 20
-14.37041584686546
 30
0.0
 11
107.6482277320146
 21
-19.51327298972261
 31
0.0
  0
LINE
  5
D6
  8
刻线
 10
98.64822773201456
 20
-13.37041584686546
 30
0.0
 11
107.6482277320146
 21
-18.51327298972261
 31
0.0
  0
LINE
  5
D7
  8
刻线
 10
98.64822773201456
 20
-10.37041584686546
 30
0.0
 11
107.6482277320146
 21
-15.51327298972261
 31
0.0
  0
LINE
  5
D8
  8
刻线
 10
98.64822773201456
 20
-9.370415846865464
 30
0.0
 11
107.6482277320146
 21
-14.51327298972261
 31
0.0
  0
LINE
  5
D9
  8
刻线
 10
98.64822773201456
 20
-6.370415846865463
 30
0.0
 11
107.6482277320146
 21
-11.51327298972261
 31
0.0
  0
LINE
  5
DA
  8
刻线
 10
98.64822773201456
 20
-5.370415846865463
 30
0.0
 11
107.6482277320146
 21
-10.51327298972261
 31
0.0
  0
LINE
  5
DB
  8
刻线
 10
98.64822773201456
 20
-2.370415846865463
 30
0.0
 11
107.6482277320146
 21
-7.513272989722608
 31
0.0
  0
LINE
  5
DC
  8
刻线
 10
98.64822773201456
 20
-1.370415846865463
 30
0.0
 11
107.6482277320146
 21
-6.513272989722608
 31
0.0
  0
LINE
  5
DD
  8
刻线
 10
98.64822773201456
 20
1.629584153134537
 30
0.0
 11
107.6482277320146
 21
-3.513272989722608
 31
0.0
  0
LINE
  5
DE
  8
刻线
 10
98.64822773201456
 20
2.629584153134537
 30
0.0
 11
107.6482277320146
 21
-2.513272989722608
 31
0.0
  0
LINE
  5
DF
  8
刻线
 10
98.64822773201456
 20
5.629584153134537
 30
0.0
 11
107.6482277320146
 21
0.4867270102773924
 31
0.0
  0
LINE
  5
E0
  8
刻线
 10
98.64822773201456
 20
6.629584153134537
 30
0.0
 11
107.6482277320146
 21
1.486727010277392
 31
0.0
  0
LINE
  5
E1
  8
刻线
 10
98.64822773201456
 20
9.629584153134536
 30
0.0
 11
107.6482277320146
 21
4.486727010277392
 31
0.0
  0
LINE
  5
E2
  8
刻线
 10
98.64822773201456
 20
10.62958415313454
 30
0.0
 11
107.6482277320146
 21
5.486727010277392
 31
0.0
  0
LINE
  5
E3
  8
刻线
 10
98.64822773201456
 20
13.62958415313454
 30
0.0
 11
107.6482277320146
 21
8.486727010277392
 31
0.0
  0
LINE
  5
E4
  8
刻线
 10
98.64822773201456
 20
14.62958415313454
 30
0.0
 11
107.6482277320146
 21
9.486727010277392
 31
0.0
  0
LINE
  5
E5
  8
刻线
 10
98.64822773201456
 20
17.62958415313454
 30
0.0
 11
107.6482277320146
 21
12.48672701027739
 31
0.0
  0
LINE
  5
E6
  8
刻线
 10
98.64822773201456
 20
18.62958415313454
 30
0.0
 11
107.6482277320146
 21
13.48672701027739
 31
0.0
  0
LINE
  5
E7
  8
刻线
 10
98.64822773201456
 20
21.62958415313454
 30
0.0
 11
107.6482277320146
 21
16.48672701027739
 31
0.0
  0
LINE
  5
E8
  8
刻线
 10
98.64822773201456
 20
22.62958415313454
 30
0.0
 11
107.6482277320146
 21
17.48672701027739
 31
0.0
  0
LINE
  5
E9
  8
刻线
 10
98.64822773201456
 20
25.62958415313454
 30
0.0
 11
107.6482277320146
 21
20.48672701027739
 31
0.0
  0
LINE
  5
EA
  8
刻线
 10
98.64822773201456
 20
26.62958415313453
 30
0.0
 11
107.6482277320146
 21
21.48672701027739
 31
0.0
  0
LINE
  5
EB
  8
刻线
 10
98.64822773201456
 20
29.62958415313454
 30
0.0
 11
107.6482277320146
 21
24.48672701027739
 31
0.0
  0
LINE
  5
EC
  8
刻线
 10
98.64822773201456
 20
30.62958415313454
 30
0.0
 11
107.6482277320146
 21
25.48672701027739
 31
0.0
  0
LINE
  5
ED
  8
刻线
 10
111.9969633333468
 20
30.00173523808757
 30
0.0
 11
112.0
 21
30.0
 31
0.0
  0
LINE
  5
EE
  8
刻线
 10
98.64822773201456
 20
33.62958415313454
 30
0.0
 11
107.6482277320146
 21
28.48672701027739
 31
0.0
  0
LINE
  5
EF
  8
刻线
 10
98.64822773201456
 20
34.62958415313454
 30
0.0
 11
107.6482277320146
 21
29.48672701027739
 31
0.0
  0
LINE
  5
F0
  8
刻线
 10
98.64822773201456
 20
37.62958415313454
 30
0.0
 11
107.6482277320146
 21
32.48672701027739
 31
0.0
  0
LINE
  5
F1
  8
刻线
 10
98.64822773201456
 20
38.62958415313454
 30
0.0
 11
107.6482277320146
 21
33.48672701027739
 31
0.0
  0
LINE
  5
F2
  8
刻线
 10
98.64822773201456
 20
41.62958415313454
 30
0.0
 11
107.6482277320146
 21
36.48672701027739
 31
0.0
  0
LINE
  5
F3
  8
刻线
 10
98.64822773201456
 20
42.62958415313454
 30
0.0
 11
107.6482277320146
 21
37.48672701027739
 31
0.0
  0
LINE
  5
F4
  8
刻线
 10
98.64822773201456
 20
-18.37041584686546
 30
0.0
 11
99.64822773201456
 21
-18.94184441829404
 31
0.0
  0
LINE
  5
F5
  8
刻线
 10
106.6482277320146
 20
41.05815558170596
 30
0.0
 11
107.6482277320146
 21
40.48672701027739
 31
0.0
  0
LINE
  5
F6
  8
刻线
 10
106.6482277320146
 20
42.05815558170596
 30
0.0
 11
107.6482277320146
 21
41.48672701027739
 31
0.0
  0
LINE
  5
F7
  8
刻线
 10
98.64822773201456
 20
-22.44333945057701
 30
0.0
 11
98.64822773201456
 21
43.90666054942301
 31
0.0
  0
LINE
  5
F8
  8
刻线
 10
107.6482277320146
 20
-22.44333945057701
 30
0.0
 11
107.6482277320146
 21
43.90666054942301
 31
0.0
  0
LINE
  5
F9
  8
刻线
 10
106.6482277320146
 20
-22.44333945057701
 30
0.0
 11
106.6482277320146
 21
43.90666054942301
 31
0.0
  0
LINE
  5
FA
  8
刻线
 10
99.64822773201456
 20
-22.44333945057701
 30
0.0
 11
99.64822773201456
 21
43.90666054942301
 31
0.0
  0
LINE
  5
FB
  8
MAKE2D$可见线$曲线
 62
     7
 10
182.8946162197825
 20
42.58343724471965
 30
0.0
 11
181.5713929150791
 21
43.90666054942301
 31
0.0
  0
LINE
  5
FC
  8
MAKE2D$可见线$曲线
 62
     7
 10
181.5713929150791
 20
43.90666054942301
 30
0.0
 11
170.5113929150792
 21
43.90666054942301
 31
0.0
  0
LINE
  5
FD
  8
MAKE2D$可见线$曲线
 62
     7
 10
170.5113929150792
 20
43.90666054942301
 30
0.0
 11
170.5113929150792
 21
16.457660549423
 31
0.0
  0
LINE
  5
FE
  8
MAKE2D$可见线$曲线
 62
     7
 10
170.5113929150792
 20
16.457660549423
 30
0.0
 11
148.7313929150791
 21
16.457660549423
 31
0.0
  0
LINE
  5
FF
  8
MAKE2D$可见线$曲线
 62
     7
 10
148.7313929150791
 20
16.457660549423
 30
0.0
 11
148.7313929150791
 21
43.90666054942301
 31
0.0
  0
LINE
  5
100
  8
MAKE2D$可见线$曲线
 62
     7
 10
148.7313929150791
 20
43.90666054942301
 30
0.0
 11
32.57139291507917
 21
43.90666054942301
 31
0.0
  0
LINE
  5
101
  8
MAKE2D$可见线$曲线
 62
     7
 10
32.57139291507917
 20
43.90666054942301
 30
0.0
 11
31.24816961037582
 21
42.58343724471966
 31
0.0
  0
LINE
  5
102
  8
MAKE2D$可见线$曲线
 62
     7
 10
183.2481696103757
 20
-20.76656275528038
 30
0.0
 11
184.5713929150791
 21
-19.44333945057701
 31
0.0
  0
LINE
  5
103
  8
MAKE2D$可见线$曲线
 62
     7
 10
184.5713929150791
 20
-19.44333945057701
 30
0.0
 11
184.5713929150792
 21
40.90666054942301
 31
0.0
  0
LINE
  5
104
  8
MAKE2D$可见线$曲线
 62
     7
 10
184.5713929150792
 20
40.90666054942301
 30
0.0
 11
183.2481696103758
 21
42.22988385412637
 31
0.0
  0
LINE
  5
105
  8
MAKE2D$可见线$曲线
 62
     7
 10
186.2481696103758
 20
42.58343724471969
 30
0.0
 11
187.5713929150792
 21
43.90666054942307
 31
0.0
  0
LINE
  5
106
  8
MAKE2D$可见线$曲线
 62
     7
 10
184.5713929150792
 20
40.90666054942301
 30
0.0
 11
185.8946162197825
 21
42.2298838541264
 31
0.0
  0
LINE
  5
107
  8
MAKE2D$可见线$曲线
 62
     7
 10
233.7481696103758
 20
42.22988385412649
 30
0.0
 11
235.0713929150791
 21
40.90666054942321
 31
0.0
  0
LINE
  5
108
  8
MAKE2D$可见线$曲线
 62
     7
 10
232.0713929150791
 20
43.90666054942307
 30
0.0
 11
233.3946162197825
 21
42.58343724471976
 31
0.0
  0
LINE
  5
109
  8
MAKE2D$可见线$曲线
 62
     7
 10
256.0311019234431
 20
9.492766562960481
 30
0.0
 11
255.3017095867997
 21
9.950096667596
 31
0.0
  0
LINE
  5
10A
  8
MAKE2D$可见线$曲线
 62
     7
 10
255.3017095867997
 20
9.950096667596
 30
0.0
 11
251.1339641296521
 21
29.23797823512996
 31
0.0
  0
ARC
  5
10B
  8
MAKE2D$可见线$曲线
 62
     7
 10
243.3144325304374
 20
27.54832573568261
 30
0.0
 40
8.000000000000352
 50
12.19306925325326
 51
246.2380657118244
  0
LINE
  5
10C
  8
MAKE2D$可见线$曲线
 62
     7
 10
240.090933860445
 20
20.22650517488207
 30
0.0
 11
247.3937548252925
 21
5.224948852841984
 31
0.0
  0
LINE
  5
10D
  8
MAKE2D$可见线$曲线
 62
     7
 10
247.3937548252925
 20
5.224948852841984
 30
0.0
 11
248.2545598283818
 21
-9.301250047410972
 31
0.0
  0
LINE
  5
10E
  8
MAKE2D$可见线$曲线
 62
     7
 10
260.5466885715253
 20
-17.50288791871609
 30
0.0
 11
261.1270348050401
 21
-14.30512334807538
 31
0.0
  0
LINE
  5
10F
  8
MAKE2D$可见线$曲线
 62
     7
 10
261.1270348050401
 20
-14.30512334807538
 30
0.0
 11
260.3216753166936
 21
-13.14262771602752
 31
0.0
  0
LINE
  5
110
  8
MAKE2D$可见线$曲线
 62
     7
 10
260.3216753166936
 20
-13.14262771602752
 30
0.0
 11
258.9441767324176
 21
-12.89263241543654
 31
0.0
  0
LINE
  5
111
  8
MAKE2D$可见线$曲线
 62
     7
 10
258.9441767324176
 20
-12.89263241543654
 30
0.0
 11
258.5870405887161
 21
-14.86048753583085
 31
0.0
  0
LINE
  5
112
  8
MAKE2D$可见线$曲线
 62
     7
 10
258.5870405887161
 20
-14.86048753583085
 30
0.0
 11
255.8320434201641
 21
-14.36049693464892
 31
0.0
  0
LINE
  5
113
  8
MAKE2D$可见线$曲线
 62
     7
 10
255.8320434201641
 20
-14.36049693464892
 30
0.0
 11
256.1891795638655
 21
-12.3926418142546
 31
0.0
  0
LINE
  5
114
  8
MAKE2D$可见线$曲线
 62
     7
 10
256.1891795638655
 20
-12.3926418142546
 30
0.0
 11
253.4341823953135
 21
-11.89265121307266
 31
0.0
  0
LINE
  5
115
  8
MAKE2D$可见线$曲线
 62
     7
 10
253.4341823953135
 20
-11.89265121307266
 30
0.0
 11
254.862726970119
 21
-4.021230731495445
 31
0.0
  0
LINE
  5
116
  8
MAKE2D$可见线$曲线
 62
     7
 10
254.862726970119
 20
-4.021230731495445
 30
0.0
 11
257.617724138671
 21
-4.521221332677372
 31
0.0
  0
LINE
  5
117
  8
MAKE2D$可见线$曲线
 62
     7
 10
257.617724138671
 20
-4.521221332677372
 30
0.0
 11
257.9748602823724
 21
-2.553366212283052
 31
0.0
  0
LINE
  5
118
  8
MAKE2D$可见线$曲线
 62
     7
 10
257.9748602823724
 20
-2.553366212283052
 30
0.0
 11
260.7298574509244
 21
-3.05335681346499
 31
0.0
  0
LINE
  5
119
  8
MAKE2D$可见线$曲线
 62
     7
 10
260.7298574509244
 20
-3.05335681346499
 30
0.0
 11
260.3727213072231
 21
-5.021211933859306
 31
0.0
  0
LINE
  5
11A
  8
MAKE2D$可见线$曲线
 62
     7
 10
260.3727213072231
 20
-5.021211933859306
 30
0.0
 11
261.7502198914991
 21
-5.271207234450291
 31
0.0
  0
LINE
  5
11B
  8
MAKE2D$可见线$曲线
 62
     7
 10
261.7502198914991
 20
-5.271207234450291
 30
0.0
 11
262.9127155235468
 21
-4.465847746103808
 31
0.0
  0
LINE
  5
11C
  8
MAKE2D$可见线$曲线
 62
     7
 10
262.9127155235468
 20
-4.465847746103808
 30
0.0
 11
264.1626920265017
 21
2.421645175276278
 31
0.0
  0
LINE
  5
11D
  8
MAKE2D$可见线$曲线
 62
     7
 10
264.1626920265017
 20
2.421645175276278
 30
0.0
 11
262.5519730498089
 21
4.746636439371978
 31
0.0
  0
LINE
  5
11E
  8
MAKE2D$可见线$曲线
 62
     7
 10
262.5519730498089
 20
4.746636439371978
 30
0.0
 11
256.6484076886259
 21
5.818044870476139
 31
0.0
  0
LINE
  5
11F
  8
MAKE2D$可见线$曲线
 62
     7
 10
256.6484076886259
 20
5.818044870476139
 30
0.0
 11
257.1841119041779
 21
8.769827551067582
 31
0.0
  0
LINE
  5
120
  8
MAKE2D$可见线$曲线
 62
     7
 10
257.1841119041779
 20
8.769827551067582
 30
0.0
 11
256.4547195675345
 21
9.227157655703087
 31
0.0
  0
LINE
  5
121
  8
MAKE2D$可见线$曲线
 62
     7
 10
248.2841373377709
 20
-9.800374451681403
 30
0.0
 11
249.1449423408602
 21
-24.32657335193434
 31
0.0
  0
LINE
  5
122
  8
MAKE2D$可见线$曲线
 62
     7
 10
249.1449423408602
 20
-24.32657335193434
 30
0.0
 11
251.1127974612546
 21
-24.68370949563571
 31
0.0
  0
LINE
  5
123
  8
MAKE2D$可见线$曲线
 62
     7
 10
251.1127974612546
 20
-24.68370949563571
 30
0.0
 11
251.6485016768066
 21
-21.73192681504425
 31
0.0
  0
LINE
  5
124
  8
MAKE2D$可见线$曲线
 62
     7
 10
251.6485016768066
 20
-21.73192681504425
 30
0.0
 11
257.5520670379896
 21
-22.80333524614839
 31
0.0
  0
LINE
  5
125
  8
MAKE2D$可见线$曲线
 62
     7
 10
257.5520670379896
 20
-22.80333524614839
 30
0.0
 11
259.8770583020852
 21
-21.19261626945546
 31
0.0
  0
LINE
  5
126
  8
MAKE2D$可见线$曲线
 62
     7
 10
259.8770583020852
 20
-21.19261626945546
 30
0.0
 11
260.4574045355999
 21
-17.99485169881471
 31
0.0
  0
LINE
  5
127
  8
MAKE2D$可见线$曲线
 62
     7
 10
240.1500864171557
 20
-8.736171536680043
 30
0.0
 11
236.076596180194
 21
-0.0933394505769911
 31
0.0
  0
LINE
  5
128
  8
MAKE2D$可见线$曲线
 62
     7
 10
236.076596180194
 20
-0.0933394505769911
 30
0.0
 11
235.221392915079
 21
-0.0933394505769911
 31
0.0
  0
LINE
  5
129
  8
MAKE2D$可见线$曲线
 62
     7
 10
235.221392915079
 20
-0.0933394505769911
 30
0.0
 11
235.221392915079
 21
-5.493339450576741
 31
0.0
  0
LINE
  5
12A
  8
MAKE2D$可见线$曲线
 62
     7
 10
235.221392915079
 20
-5.493339450576741
 30
0.0
 11
236.221392915079
 21
-6.493339450576741
 31
0.0
  0
LINE
  5
12B
  8
MAKE2D$可见线$曲线
 62
     7
 10
236.221392915079
 20
-6.493339450576741
 30
0.0
 11
236.221392915079
 21
-22.49333945057674
 31
0.0
  0
LINE
  5
12C
  8
MAKE2D$可见线$曲线
 62
     7
 10
236.221392915079
 20
-22.49333945057674
 30
0.0
 11
235.221392915079
 21
-23.49333945057674
 31
0.0
  0
LINE
  5
12D
  8
MAKE2D$可见线$曲线
 62
     7
 10
235.221392915079
 20
-23.49333945057674
 30
0.0
 11
235.221392915079
 21
-25.49333945057674
 31
0.0
  0
LINE
  5
12E
  8
MAKE2D$可见线$曲线
 62
     7
 10
235.221392915079
 20
-25.49333945057674
 30
0.0
 11
236.221392915079
 21
-26.49333945057674
 31
0.0
  0
LINE
  5
12F
  8
MAKE2D$可见线$曲线
 62
     7
 10
236.221392915079
 20
-26.49333945057674
 30
0.0
 11
237.0963929150791
 21
-26.49333945057674
 31
0.0
  0
LINE
  5
130
  8
MAKE2D$可见线$曲线
 62
     7
 10
237.5963929150791
 20
-26.49333945057674
 30
0.0
 11
238.4713929150792
 21
-26.49333945057674
 31
0.0
  0
LINE
  5
131
  8
MAKE2D$可见线$曲线
 62
     7
 10
238.4713929150792
 20
-26.49333945057674
 30
0.0
 11
248.4713929150792
 21
-22.49333945057674
 31
0.0
  0
LINE
  5
132
  8
MAKE2D$可见线$曲线
 62
     7
 10
248.4713929150792
 20
-22.49333945057674
 30
0.0
 11
248.4713929150792
 21
-21.29333945057675
 31
0.0
  0
LINE
  5
133
  8
MAKE2D$可见线$曲线
 62
     7
 10
248.4713929150792
 20
-21.29333945057675
 30
0.0
 11
241.8463929150791
 21
-20.99333945057674
 31
0.0
  0
LINE
  5
134
  8
MAKE2D$可见线$曲线
 62
     7
 10
241.8463929150791
 20
-20.99333945057674
 30
0.0
 11
241.8463929150791
 21
-18.79333945057675
 31
0.0
  0
LINE
  5
135
  8
MAKE2D$可见线$曲线
 62
     7
 10
241.8463929150791
 20
-18.79333945057675
 30
0.0
 11
248.4713929150792
 21
-18.49333945057674
 31
0.0
  0
LINE
  5
136
  8
MAKE2D$可见线$曲线
 62
     7
 10
248.4713929150792
 20
-18.49333945057674
 30
0.0
 11
248.4713929150792
 21
-17.92425998017109
 31
0.0
  0
LINE
  5
137
  8
MAKE2D$可见线$曲线
 62
     7
 10
248.4713929150792
 20
-17.92425998017109
 30
0.0
 11
243.1170996045795
 21
-15.03136197152548
 31
0.0
  0
LINE
  5
138
  8
MAKE2D$可见线$曲线
 62
     7
 10
243.1170996045795
 20
-15.03136197152548
 30
0.0
 11
240.363253741729
 21
-9.18845429307734
 31
0.0
  0
LINE
  5
139
  8
MAKE2D$可见线$曲线
 62
     7
 10
233.3946162197824
 20
-21.12011614587354
 30
0.0
 11
232.071392915079
 21
-22.4433394505769
 31
0.0
  0
LINE
  5
13A
  8
MAKE2D$可见线$曲线
 62
     7
 10
235.0713929150792
 20
-19.44333945057696
 30
0.0
 11
233.7481696103758
 21
-20.76656275528028
 31
0.0
  0
LINE
  5
13B
  8
MAKE2D$可见线$曲线
 62
     7
 10
118.9848103235468
 20
-22.44333945057701
 30
0.0
 11
142.8213929150791
 21
-22.44333945057701
 31
0.0
  0
LINE
  5
13C
  8
MAKE2D$可见线$曲线
 62
     7
 10
142.8213929150791
 20
-22.44333945057701
 30
0.0
 11
143.8213929150791
 21
-21.44333945057701
 31
0.0
  0
LINE
  5
13D
  8
MAKE2D$可见线$曲线
 62
     7
 10
143.8213929150791
 20
-21.44333945057701
 30
0.0
 11
174.8213929150791
 21
-21.44333945057701
 31
0.0
  0
LINE
  5
13E
  8
MAKE2D$可见线$曲线
 62
     7
 10
174.8213929150791
 20
-21.44333945057701
 30
0.0
 11
175.8213929150791
 21
-22.44333945057701
 31
0.0
  0
LINE
  5
13F
  8
MAKE2D$可见线$曲线
 62
     7
 10
175.8213929150791
 20
-22.44333945057701
 30
0.0
 11
181.5713929150791
 21
-22.44333945057701
 31
0.0
  0
LINE
  5
140
  8
MAKE2D$可见线$曲线
 62
     7
 10
181.5713929150791
 20
-22.44333945057701
 30
0.0
 11
182.8946162197825
 21
-21.12011614587365
 31
0.0
  0
LINE
  5
141
  8
MAKE2D$可见线$曲线
 62
     7
 10
185.8946162197825
 20
-20.76656275528029
 30
0.0
 11
184.5713929150792
 21
-19.44333945057696
 31
0.0
  0
LINE
  5
142
  8
MAKE2D$可见线$曲线
 62
     7
 10
187.5713929150792
 20
-22.4433394505769
 30
0.0
 11
186.2481696103758
 21
-21.12011614587358
 31
0.0
  0
LINE
  5
143
  8
MAKE2D$可见线$曲线
 62
     7
 10
31.24816961037579
 20
-21.12011614587363
 30
0.0
 11
32.57139291507917
 21
-22.44333945057701
 31
0.0
  0
LINE
  5
144
  8
MAKE2D$可见线$曲线
 62
     7
 10
32.57139291507917
 20
-22.44333945057701
 30
0.0
 11
33.57139291507917
 21
-22.44333945057701
 31
0.0
  0
LINE
  5
145
  8
MAKE2D$可见线$曲线
 62
     7
 10
33.57139291507917
 20
-22.44333945057701
 30
0.0
 11
33.87139291507918
 21
-15.8183394505769
 31
0.0
  0
LINE
  5
146
  8
MAKE2D$可见线$曲线
 62
     7
 10
33.87139291507918
 20
-15.8183394505769
 30
0.0
 11
36.07139291507917
 21
-15.8183394505769
 31
0.0
  0
LINE
  5
147
  8
MAKE2D$可见线$曲线
 62
     7
 10
36.07139291507917
 20
-15.8183394505769
 30
0.0
 11
36.37139291507918
 21
-22.44333945057701
 31
0.0
  0
LINE
  5
148
  8
MAKE2D$可见线$曲线
 62
     7
 10
36.37139291507918
 20
-22.44333945057701
 30
0.0
 11
39.57139291507923
 21
-22.44333945057701
 31
0.0
  0
LINE
  5
149
  8
MAKE2D$可见线$曲线
 62
     7
 10
39.57139291507923
 20
-22.44333945057701
 30
0.0
 11
39.57139291507923
 21
29.55666054942299
 31
0.0
  0
LINE
  5
14A
  8
MAKE2D$可见线$曲线
 62
     7
 10
39.57139291507923
 20
29.55666054942299
 30
0.0
 11
43.57139291507923
 21
33.55666054942299
 31
0.0
  0
LINE
  5
14B
  8
MAKE2D$可见线$曲线
 62
     7
 10
43.57139291507923
 20
33.55666054942299
 30
0.0
 11
77.57139291507917
 21
33.55666054942299
 31
0.0
  0
LINE
  5
14C
  8
MAKE2D$可见线$曲线
 62
     7
 10
77.57139291507917
 20
33.55666054942299
 30
0.0
 11
81.57139291507917
 21
29.55666054942299
 31
0.0
  0
LINE
  5
14D
  8
MAKE2D$可见线$曲线
 62
     7
 10
81.57139291507917
 20
29.55666054942299
 30
0.0
 11
82.57139291507917
 21
28.55666054942299
 31
0.0
  0
LINE
  5
14E
  8
MAKE2D$可见线$曲线
 62
     7
 10
82.57139291507917
 20
28.55666054942299
 30
0.0
 11
94.64822773201456
 21
28.55666054942299
 31
0.0
  0
LINE
  5
14F
  8
MAKE2D$可见线$曲线
 62
     7
 10
94.64822773201456
 20
28.55666054942299
 30
0.0
 11
94.64822773201456
 21
21.756660549423
 31
0.0
  0
LINE
  5
150
  8
MAKE2D$可见线$曲线
 62
     7
 10
94.64822773201456
 20
21.756660549423
 30
0.0
 11
84.57139291507917
 21
21.756660549423
 31
0.0
  0
LINE
  5
151
  8
MAKE2D$可见线$曲线
 62
     7
 10
84.57139291507917
 20
21.756660549423
 30
0.0
 11
83.57139291507917
 21
20.75666054942297
 31
0.0
  0
LINE
  5
152
  8
MAKE2D$可见线$曲线
 62
     7
 10
83.57139291507917
 20
20.75666054942297
 30
0.0
 11
83.57139291507917
 21
-12.04333945057698
 31
0.0
  0
LINE
  5
153
  8
MAKE2D$可见线$曲线
 62
     7
 10
83.57139291507917
 20
-12.04333945057698
 30
0.0
 11
84.57139291507917
 21
-13.04333945057698
 31
0.0
  0
LINE
  5
154
  8
MAKE2D$可见线$曲线
 62
     7
 10
84.57139291507917
 20
-13.04333945057698
 30
0.0
 11
94.64822773201456
 21
-13.04333945057698
 31
0.0
  0
LINE
  5
155
  8
MAKE2D$可见线$曲线
 62
     7
 10
94.64822773201456
 20
-13.04333945057698
 30
0.0
 11
94.64822773201456
 21
-22.44333945057701
 31
0.0
  0
LINE
  5
156
  8
MAKE2D$可见线$曲线
 62
     7
 10
94.64822773201456
 20
-22.44333945057701
 30
0.0
 11
118.4848103235469
 21
-22.44333945057701
 31
0.0
  0
LINE
  5
157
  8
MAKE2D$可见线$曲线
 62
     7
 10
27.39461621978253
 20
6.683437244719897
 30
0.0
 11
26.07139291507917
 21
8.006660549423259
 31
0.0
  0
LINE
  5
158
  8
MAKE2D$可见线$曲线
 62
     7
 10
26.07139291507917
 20
8.006660549423259
 30
0.0
 11
1.071392915079173
 21
8.006660549423259
 31
0.0
  0
LINE
  5
159
  8
MAKE2D$可见线$曲线
 62
     7
 10
1.071392915079173
 20
8.006660549423259
 30
0.0
 11
-8.428607084920827
 21
8.30666054942327
 31
0.0
  0
LINE
  5
15A
  8
MAKE2D$可见线$曲线
 62
     7
 10
-8.428607084920827
 20
8.30666054942327
 30
0.0
 11
-8.428607084920827
 21
10.50666054942326
 31
0.0
  0
LINE
  5
15B
  8
MAKE2D$可见线$曲线
 62
     7
 10
-8.428607084920827
 20
10.50666054942326
 30
0.0
 11
1.071392915079173
 21
10.80666054942327
 31
0.0
  0
LINE
  5
15C
  8
MAKE2D$可见线$曲线
 62
     7
 10
1.071392915079173
 20
10.80666054942327
 30
0.0
 11
1.071392915079173
 21
12.00666054942326
 31
0.0
  0
LINE
  5
15D
  8
MAKE2D$可见线$曲线
 62
     7
 10
1.071392915079173
 20
12.00666054942326
 30
0.0
 11
-1.928607084920827
 21
15.00666054942326
 31
0.0
  0
LINE
  5
15E
  8
MAKE2D$可见线$曲线
 62
     7
 10
-1.928607084920827
 20
15.00666054942326
 30
0.0
 11
-14.92860708492083
 21
15.00666054942326
 31
0.0
  0
LINE
  5
15F
  8
MAKE2D$可见线$曲线
 62
     7
 10
-14.92860708492083
 20
15.00666054942326
 30
0.0
 11
-16.2518303896242
 21
13.68343724471989
 31
0.0
  0
LINE
  5
160
  8
MAKE2D$可见线$曲线
 62
     7
 10
27.7481696103758
 20
-18.31656275528012
 30
0.0
 11
29.07139291507917
 21
-16.99333945057674
 31
0.0
  0
LINE
  5
161
  8
MAKE2D$可见线$曲线
 62
     7
 10
29.07139291507917
 20
-16.99333945057674
 30
0.0
 11
29.07139291507917
 21
5.006660549423259
 31
0.0
  0
LINE
  5
162
  8
MAKE2D$可见线$曲线
 62
     7
 10
29.07139291507917
 20
5.006660549423259
 30
0.0
 11
27.74816961037581
 21
6.329883854126621
 31
0.0
  0
LINE
  5
163
  8
MAKE2D$可见线$曲线
 62
     7
 10
30.89461621978256
 20
42.22988385412639
 30
0.0
 11
29.57139291507917
 21
40.90666054942301
 31
0.0
  0
LINE
  5
164
  8
MAKE2D$可见线$曲线
 62
     7
 10
29.57139291507917
 20
40.90666054942301
 30
0.0
 11
29.57139291507917
 21
-19.44333945057701
 31
0.0
  0
LINE
  5
165
  8
MAKE2D$可见线$曲线
 62
     7
 10
29.57139291507917
 20
-19.44333945057701
 30
0.0
 11
30.89461621978252
 21
-20.76656275528036
 31
0.0
  0
LINE
  5
166
  8
MAKE2D$可见线$曲线
 62
     7
 10
-16.25183038962419
 20
-18.67011614587338
 30
0.0
 11
-14.92860708492083
 21
-19.99333945057674
 31
0.0
  0
LINE
  5
167
  8
MAKE2D$可见线$曲线
 62
     7
 10
-14.92860708492083
 20
-19.99333945057674
 30
0.0
 11
26.07139291507917
 21
-19.99333945057674
 31
0.0
  0
LINE
  5
168
  8
MAKE2D$可见线$曲线
 62
     7
 10
26.07139291507917
 20
-19.99333945057674
 30
0.0
 11
27.39461621978253
 21
-18.67011614587339
 31
0.0
  0
LINE
  5
169
  8
MAKE2D$可见线$曲线
 62
     7
 10
-16.60538378021747
 20
13.32988385412661
 30
0.0
 11
-17.92860708492083
 21
12.00666054942326
 31
0.0
  0
LINE
  5
16A
  8
MAKE2D$可见线$曲线
 62
     7
 10
-17.92860708492083
 20
12.00666054942326
 30
0.0
 11
-17.92860708492083
 21
-16.99333945057674
 31
0.0
  0
LINE
  5
16B
  8
MAKE2D$可见线$曲线
 62
     7
 10
-17.92860708492083
 20
-16.99333945057674
 30
0.0
 11
-16.60538378021744
 21
-18.31656275528012
 31
0.0
  0
LINE
  5
16C
  8
MAKE2D$可见线$曲线
 62
     7
 10
27.39461621978254
 20
42.6834372447199
 30
0.0
 11
26.07139291507917
 21
44.00666054942326
 31
0.0
  0
LINE
  5
16D
  8
MAKE2D$可见线$曲线
 62
     7
 10
26.07139291507917
 20
44.00666054942326
 30
0.0
 11
-14.92860708492083
 21
44.00666054942326
 31
0.0
  0
LINE
  5
16E
  8
MAKE2D$可见线$曲线
 62
     7
 10
-14.92860708492083
 20
44.00666054942326
 30
0.0
 11
-16.25183038962417
 21
42.68343724471991
 31
0.0
  0
LINE
  5
16F
  8
MAKE2D$可见线$曲线
 62
     7
 10
-16.60538378021745
 20
42.32988385412663
 30
0.0
 11
-17.92860708492083
 21
41.00666054942326
 31
0.0
  0
LINE
  5
170
  8
MAKE2D$可见线$曲线
 62
     7
 10
-17.92860708492083
 20
41.00666054942326
 30
0.0
 11
-17.92860708492083
 21
19.00666054942326
 31
0.0
  0
LINE
  5
171
  8
MAKE2D$可见线$曲线
 62
     7
 10
-17.92860708492083
 20
19.00666054942326
 30
0.0
 11
-14.92860708492083
 21
16.00666054942326
 31
0.0
  0
LINE
  5
172
  8
MAKE2D$可见线$曲线
 62
     7
 10
-14.92860708492083
 20
16.00666054942326
 30
0.0
 11
10.07139291507917
 21
16.00666054942326
 31
0.0
  0
LINE
  5
173
  8
MAKE2D$可见线$曲线
 62
     7
 10
10.07139291507917
 20
16.00666054942326
 30
0.0
 11
19.57139291507917
 21
15.70666054942325
 31
0.0
  0
LINE
  5
174
  8
MAKE2D$可见线$曲线
 62
     7
 10
19.57139291507917
 20
15.70666054942325
 30
0.0
 11
19.57139291507917
 21
13.50666054942326
 31
0.0
  0
LINE
  5
175
  8
MAKE2D$可见线$曲线
 62
     7
 10
19.57139291507917
 20
13.50666054942326
 30
0.0
 11
10.07139291507917
 21
13.20666054942325
 31
0.0
  0
LINE
  5
176
  8
MAKE2D$可见线$曲线
 62
     7
 10
10.07139291507917
 20
13.20666054942325
 30
0.0
 11
10.07139291507917
 21
12.00666054942326
 31
0.0
  0
LINE
  5
177
  8
MAKE2D$可见线$曲线
 62
     7
 10
10.07139291507917
 20
12.00666054942326
 30
0.0
 11
13.07139291507917
 21
9.006660549423259
 31
0.0
  0
LINE
  5
178
  8
MAKE2D$可见线$曲线
 62
     7
 10
13.07139291507917
 20
9.006660549423259
 30
0.0
 11
26.07139291507917
 21
9.006660549423259
 31
0.0
  0
LINE
  5
179
  8
MAKE2D$可见线$曲线
 62
     7
 10
26.07139291507917
 20
9.006660549423259
 30
0.0
 11
29.07139291507917
 21
12.00666054942326
 31
0.0
  0
LINE
  5
17A
  8
MAKE2D$可见线$曲线
 62
     7
 10
29.07139291507917
 20
12.00666054942326
 30
0.0
 11
29.07139291507917
 21
41.00666054942326
 31
0.0
  0
LINE
  5
17B
  8
MAKE2D$可见线$曲线
 62
     7
 10
29.07139291507917
 20
41.00666054942326
 30
0.0
 11
27.74816961037581
 21
42.32988385412662
 31
0.0
  0
CIRCLE
  5
17C
  8
切线
 10
243.3144325304374
 20
27.54832573568261
 30
0.0
 40
2.75
  0
CIRCLE
  5
17D
  8
MAKE2D$可见线$曲线
 62
     7
 10
-159.6213929150792
 20
27.15766188456706
 30
0.0
 40
1.5
210
0.0
220
0.0
230
-1.0
  0
CIRCLE
  5
17E
  8
MAKE2D$可见线$曲线
 62
     7
 10
-159.6213929150792
 20
33.80666035868842
 30
0.0
 40
1.5
210
0.0
220
0.0
230
-1.0
  0
LINE
  5
17F
  8
MAKE2D$可见线$曲线
 62
     7
 10
194.3213929150791
 20
-21.44333945057696
 30
0.0
 11
193.3213929150791
 21
-22.44333945057696
 31
0.0
  0
LINE
  5
180
  8
MAKE2D$可见线$曲线
 62
     7
 10
225.3213929150791
 20
-21.44333945057696
 30
0.0
 11
194.3213929150791
 21
-21.44333945057696
 31
0.0
  0
LINE
  5
181
  8
MAKE2D$可见线$曲线
 62
     7
 10
226.3213929150791
 20
-22.4433394505769
 30
0.0
 11
225.3213929150791
 21
-21.44333945057696
 31
0.0
  0
LINE
  5
182
  8
MAKE2D$可见线$曲线
 62
     7
 10
232.071392915079
 20
-22.4433394505769
 30
0.0
 11
226.3213929150791
 21
-22.4433394505769
 31
0.0
  0
LINE
  5
183
  8
MAKE2D$可见线$曲线
 62
     7
 10
235.0713929150791
 20
40.90666054942321
 30
0.0
 11
235.0713929150792
 21
-19.44333945057696
 31
0.0
  0
LINE
  5
184
  8
MAKE2D$可见线$曲线
 62
     7
 10
187.5713929150792
 20
43.90666054942307
 30
0.0
 11
232.0713929150791
 21
43.90666054942307
 31
0.0
  0
LINE
  5
185
  8
MAKE2D$可见线$曲线
 62
     7
 10
193.3213929150791
 20
-22.44333945057696
 30
0.0
 11
187.5713929150792
 21
-22.4433394505769
 31
0.0
  0
CIRCLE
  5
186
  8
MAKE2D$可见线$曲线
 62
     7
 10
192.6200929150787
 20
-15.48323945057709
 30
0.0
 40
1.5
  0
CIRCLE
  5
187
  8
MAKE2D$可见线$曲线
 62
     7
 10
227.6200929150787
 20
-15.48323945057709
 30
0.0
 40
1.5
  0
CIRCLE
  5
188
  8
MAKE2D$可见线$曲线
 62
     7
 10
227.6200929150787
 20
34.51676054942291
 30
0.0
 40
1.5
  0
CIRCLE
  5
189
  8
MAKE2D$可见线$曲线
 62
     7
 10
192.6200929150787
 20
34.51676054942294
 30
0.0
 40
1.5
  0
CIRCLE
  5
18A
  8
MAKE2D$可见线$曲线
 62
     7
 10
10.57139291507917
 20
-8.493339450576743
 30
0.0
 40
1.500000000000002
  0
CIRCLE
  5
18B
  8
MAKE2D$可见线$曲线
 62
     7
 10
3.928607084920829
 20
33.00666054942326
 30
0.0
 40
1.500000000000001
210
0.0
220
0.0
230
-1.0
  0
CIRCLE
  5
18C
  8
MAKE2D$可见线$曲线
 62
     7
 10
-15.31139291507919
 20
33.00666054942326
 30
0.0
 40
0.9999999999999964
210
0.0
220
0.0
230
-1.0
  0
CIRCLE
  5
18D
  8
MAKE2D$可见线$曲线
 62
     7
 10
12.48860708492117
 20
33.00666054942326
 30
0.0
 40
1.000000000000002
210
0.0
220
0.0
230
-1.0
  0
CIRCLE
  5
18E
  8
MAKE2D$可见线$曲线
 62
     7
 10
4.168607084920835
 20
-8.993339450576741
 30
0.0
 40
1.000000000000001
210
0.0
220
0.0
230
-1.0
  0
CIRCLE
  5
18F
  8
MAKE2D$可见线$曲线
 62
     7
 10
-23.63139291507952
 20
-8.993339450576741
 30
0.0
 40
1.0
210
0.0
220
0.0
230
-1.0
  0
LINE
  5
190
  8
MAKE2D$可见线$曲线
 62
     7
 10
134.0713929150792
 20
7.556660549423043
 30
0.0
 11
115.0713929150792
 21
7.556660549423043
 31
0.0
  0
LINE
  5
191
  8
MAKE2D$可见线$曲线
 62
     7
 10
115.0713929150792
 20
7.556660549423043
 30
0.0
 11
115.0713929150792
 21
10.35666054942303
 31
0.0
  0
LINE
  5
192
  8
MAKE2D$可见线$曲线
 62
     7
 10
115.0713929150792
 20
10.35666054942303
 30
0.0
 11
134.0713929150792
 21
10.35666054942303
 31
0.0
  0
LINE
  5
193
  8
MAKE2D$可见线$曲线
 62
     7
 10
134.0713929150792
 20
10.35666054942303
 30
0.0
 11
134.0713929150792
 21
7.556660549423043
 31
0.0
  0
LINE
  5
194
  8
MAKE2D$可见线$曲线
 62
     7
 10
134.0713929150792
 20
-12.24333945057697
 30
0.0
 11
115.0713929150792
 21
-12.24333945057697
 31
0.0
  0
LINE
  5
195
  8
MAKE2D$可见线$曲线
 62
     7
 10
115.0713929150792
 20
-12.24333945057697
 30
0.0
 11
115.0713929150792
 21
-9.443339450576957
 31
0.0
  0
LINE
  5
196
  8
MAKE2D$可见线$曲线
 62
     7
 10
115.0713929150792
 20
-9.443339450576957
 30
0.0
 11
134.0713929150792
 21
-9.443339450576957
 31
0.0
  0
LINE
  5
197
  8
MAKE2D$可见线$曲线
 62
     7
 10
134.0713929150792
 20
-9.443339450576957
 30
0.0
 11
134.0713929150792
 21
-12.24333945057697
 31
0.0
  0
LINE
  5
198
  8
MAKE2D$可见线$曲线
 62
     7
 10
44.57139291507917
 20
27.10666054942325
 30
0.0
 11
54.57139291507917
 21
27.10666054942325
 31
0.0
  0
LINE
  5
199
  8
MAKE2D$可见线$曲线
 62
     7
 10
54.57139291507917
 20
27.10666054942325
 30
0.0
 11
54.57139291507917
 21
24.30666054942324
 31
0.0
  0
LINE
  5
19A
  8
MAKE2D$可见线$曲线
 62
     7
 10
54.57139291507917
 20
24.30666054942324
 30
0.0
 11
44.57139291507917
 21
24.30666054942324
 31
0.0
  0
LINE
  5
19B
  8
MAKE2D$可见线$曲线
 62
     7
 10
44.57139291507917
 20
24.30666054942324
 30
0.0
 11
44.57139291507917
 21
27.10666054942325
 31
0.0
  0
LINE
  5
19C
  8
MAKE2D$可见线$曲线
 62
     7
 10
72.57139291507917
 20
-17.89333945057672
 30
0.0
 11
62.57139291507917
 21
-17.89333945057672
 31
0.0
  0
LINE
  5
19D
  8
MAKE2D$可见线$曲线
 62
     7
 10
62.57139291507917
 20
-17.89333945057672
 30
0.0
 11
62.57139291507917
 21
-15.09333945057676
 31
0.0
  0
LINE
  5
19E
  8
MAKE2D$可见线$曲线
 62
     7
 10
62.57139291507917
 20
-15.09333945057676
 30
0.0
 11
72.57139291507917
 21
-15.09333945057676
 31
0.0
  0
LINE
  5
19F
  8
MAKE2D$可见线$曲线
 62
     7
 10
72.57139291507917
 20
-15.09333945057676
 30
0.0
 11
72.57139291507917
 21
-17.89333945057672
 31
0.0
  0
LINE
  5
1A0
  8
MAKE2D$可见线$曲线
 62
     7
 10
54.57139291507917
 20
-17.89333945057672
 30
0.0
 11
44.57139291507917
 21
-17.89333945057672
 31
0.0
  0
LINE
  5
1A1
  8
MAKE2D$可见线$曲线
 62
     7
 10
44.57139291507917
 20
-17.89333945057672
 30
0.0
 11
44.57139291507917
 21
-15.09333945057676
 31
0.0
  0
LINE
  5
1A2
  8
MAKE2D$可见线$曲线
 62
     7
 10
44.57139291507917
 20
-15.09333945057676
 30
0.0
 11
54.57139291507917
 21
-15.09333945057676
 31
0.0
  0
LINE
  5
1A3
  8
MAKE2D$可见线$曲线
 62
     7
 10
54.57139291507917
 20
-15.09333945057676
 30
0.0
 11
54.57139291507917
 21
-17.89333945057672
 31
0.0
  0
LINE
  5
1A4
  8
MAKE2D$可见线$曲线
 62
     7
 10
62.57139291507917
 20
27.10666054942325
 30
0.0
 11
72.57139291507917
 21
27.10666054942325
 31
0.0
  0
LINE
  5
1A5
  8
MAKE2D$可见线$曲线
 62
     7
 10
72.57139291507917
 20
27.10666054942325
 30
0.0
 11
72.57139291507917
 21
24.30666054942324
 31
0.0
  0
LINE
  5
1A6
  8
MAKE2D$可见线$曲线
 62
     7
 10
72.57139291507917
 20
24.30666054942324
 30
0.0
 11
62.57139291507917
 21
24.30666054942324
 31
0.0
  0
LINE
  5
1A7
  8
MAKE2D$可见线$曲线
 62
     7
 10
62.57139291507917
 20
24.30666054942324
 30
0.0
 11
62.57139291507917
 21
27.10666054942325
 31
0.0
  0
CIRCLE
  5
1A8
  8
MAKE2D$可见线$曲线
 62
     7
 10
-131.5713929150792
 20
30.90666054942301
 30
0.0
 40
1.0
210
0.0
220
0.0
230
-1.0
  0
CIRCLE
  5
1A9
  8
MAKE2D$可见线$曲线
 62
     7
 10
-121.5713929150792
 20
20.90666054942301
 30
0.0
 40
1.0
210
0.0
220
0.0
230
-1.0
  0
CIRCLE
  5
1AA
  8
MAKE2D$可见线$曲线
 62
     7
 10
-111.5713929150792
 20
30.90666054942301
 30
0.0
 40
1.0
210
0.0
220
0.0
230
-1.0
  0
CIRCLE
  5
1AB
  8
MAKE2D$可见线$曲线
 62
     7
 10
-121.5713929150792
 20
40.90666054942301
 30
0.0
 40
1.0
210
0.0
220
0.0
230
-1.0
  0
CIRCLE
  5
1AC
  8
MAKE2D$可见线$曲线
 62
     7
 10
-142.1200929150787
 20
34.51676054942288
 30
0.0
 40
1.5
210
0.0
220
0.0
230
-1.0
  0
CIRCLE
  5
1AD
  8
MAKE2D$可见线$曲线
 62
     7
 10
-177.1200929150787
 20
34.51676054942288
 30
0.0
 40
1.5
210
0.0
220
0.0
230
-1.0
  0
CIRCLE
  5
1AE
  8
MAKE2D$可见线$曲线
 62
     7
 10
-177.1200929150787
 20
-15.48323945057712
 30
0.0
 40
1.5
210
0.0
220
0.0
230
-1.0
  0
CIRCLE
  5
1AF
  8
MAKE2D$可见线$曲线
 62
     7
 10
-142.1200929150787
 20
-15.48323945057712
 30
0.0
 40
1.5
210
0.0
220
0.0
230
-1.0
  0
CIRCLE
  5
1B0
  8
MAKE2D$可见线$曲线
 62
     7
 10
-58.57139291507923
 20
20.90666054942326
 30
0.0
 40
1.5
210
0.0
220
0.0
230
-1.0
  0
CIRCLE
  5
1B1
  8
MAKE2D$可见线$曲线
 62
     7
 10
-58.57139291507924
 20
-11.69333945057673
 30
0.0
 40
1.499999999999993
210
0.0
220
0.0
230
-1.0
  0
ENDSEC
  0
EOF
