  0
SECTION
  2
HEADER
  9
$ACADVER
  1
AC1009
  9
$DWGCODEPAGE
  3
ansi_936
  9
$INSBASE
 10
0.0
 20
0.0
 30
0.0
  9
$EXTMIN
 10
1.000000000000000E+20
 20
1.000000000000000E+20
 30
1.000000000000000E+20
  9
$EXTMAX
 10
-1.000000000000000E+20
 20
-1.000000000000000E+20
 30
-1.000000000000000E+20
  9
$LIMMIN
 10
0.0
 20
0.0
  9
$LIMMAX
 10
12.0
 20
9.0
  9
$ORTHOMODE
 70
     0
  9
$REGENMODE
 70
     1
  9
$FILLMODE
 70
     1
  9
$QTEXTMODE
 70
     0
  9
$MIRRTEXT
 70
     1
  9
$DRAGMODE
 70
     2
  9
$LTSCALE
 40
1.0
  9
$OSMODE
 70
    37
  9
$ATTMODE
 70
     1
  9
$TEXTSIZE
 40
0.2
  9
$TRACEWID
 40
0.05
  9
$TEXTSTYLE
  7
STANDARD
  9
$CLAYER
  8
0
  9
$CELTYPE
  6
BYLAYER
  9
$CECOLOR
 62
   256
  9
$DIMSCALE
 40
1.0
  9
$DIMASZ
 40
0.18
  9
$DIMEXO
 40
0.0625
  9
$DIMDLI
 40
0.38
  9
$DIMRND
 40
0.0
  9
$DIMDLE
 40
0.0
  9
$DIMEXE
 40
0.18
  9
$DIMTP
 40
0.0
  9
$DIMTM
 40
0.0
  9
$DIMTXT
 40
0.18
  9
$DIMCEN
 40
0.09
  9
$DIMTSZ
 40
0.0
  9
$DIMTOL
 70
     0
  9
$DIMLIM
 70
     0
  9
$DIMTIH
 70
     1
  9
$DIMTOH
 70
     1
  9
$DIMSE1
 70
     0
  9
$DIMSE2
 70
     0
  9
$DIMTAD
 70
     0
  9
$DIMZIN
 70
     0
  9
$DIMBLK
  1

  9
$DIMASO
 70
     1
  9
$DIMSHO
 70
     1
  9
$DIMPOST
  1

  9
$DIMAPOST
  1

  9
$DIMALT
 70
     0
  9
$DIMALTD
 70
     2
  9
$DIMALTF
 40
25.4
  9
$DIMLFAC
 40
1.0
  9
$DIMTOFL
 70
     0
  9
$DIMTVP
 40
0.0
  9
$DIMTIX
 70
     0
  9
$DIMSOXD
 70
     0
  9
$DIMSAH
 70
     0
  9
$DIMBLK1
  1

  9
$DIMBLK2
  1

  9
$DIMSTYLE
  2
STANDARD_ACAD
  9
$DIMCLRD
 70
     0
  9
$DIMCLRE
 70
     0
  9
$DIMCLRT
 70
     0
  9
$DIMTFAC
 40
1.0
  9
$DIMGAP
 40
0.09
  9
$LUNITS
 70
     2
  9
$LUPREC
 70
     2
  9
$SKETCHINC
 40
0.1
  9
$FILLETRAD
 40
0.5
  9
$AUNITS
 70
     0
  9
$AUPREC
 70
     0
  9
$MENU
  1
.
  9
$ELEVATION
 40
0.0
  9
$PELEVATION
 40
0.0
  9
$THICKNESS
 40
0.0
  9
$LIMCHECK
 70
     0
  9
$CHAMFERA
 40
0.0
  9
$CHAMFERB
 40
0.0
  9
$SKPOLY
 70
     0
  9
$TDCREATE
 40
2459285.698477813
  9
$TDUPDATE
 40
2459285.698495081
  9
$TDINDWG
 40
0.0000000116
  9
$TDUSRTIMER
 40
0.0000000116
  9
$USRTIMER
 70
     1
  9
$ANGBASE
 50
0.0
  9
$ANGDIR
 70
     0
  9
$PDMODE
 70
     0
  9
$PDSIZE
 40
0.0
  9
$PLINEWID
 40
0.0
  9
$COORDS
 70
     1
  9
$SPLFRAME
 70
     0
  9
$SPLINETYPE
 70
     6
  9
$SPLINESEGS
 70
     8
  9
$ATTDIA
 70
     0
  9
$ATTREQ
 70
     1
  9
$HANDLING
 70
     1
  9
$HANDSEED
  5
17A
  9
$SURFTAB1
 70
     6
  9
$SURFTAB2
 70
     6
  9
$SURFTYPE
 70
     6
  9
$SURFU
 70
     6
  9
$SURFV
 70
     6
  9
$UCSNAME
  2

  9
$UCSORG
 10
0.0
 20
0.0
 30
0.0
  9
$UCSXDIR
 10
1.0
 20
0.0
 30
0.0
  9
$UCSYDIR
 10
0.0
 20
1.0
 30
0.0
  9
$PUCSNAME
  2

  9
$PUCSORG
 10
0.0
 20
0.0
 30
0.0
  9
$PUCSXDIR
 10
1.0
 20
0.0
 30
0.0
  9
$PUCSYDIR
 10
0.0
 20
1.0
 30
0.0
  9
$USERI1
 70
     0
  9
$USERI2
 70
     0
  9
$USERI3
 70
     0
  9
$USERI4
 70
     0
  9
$USERI5
 70
     0
  9
$USERR1
 40
0.0
  9
$USERR2
 40
0.0
  9
$USERR3
 40
0.0
  9
$USERR4
 40
0.0
  9
$USERR5
 40
0.0
  9
$WORLDVIEW
 70
     1
  9
$SHADEDGE
 70
     3
  9
$SHADEDIF
 70
    70
  9
$TILEMODE
 70
     1
  9
$MAXACTVP
 70
    64
  9
$PLIMCHECK
 70
     0
  9
$PEXTMIN
 10
1.000000000000000E+20
 20
1.000000000000000E+20
 30
1.000000000000000E+20
  9
$PEXTMAX
 10
-1.000000000000000E+20
 20
-1.000000000000000E+20
 30
-1.000000000000000E+20
  9
$PLIMMIN
 10
0.0
 20
0.0
  9
$PLIMMAX
 10
12.0
 20
9.0
  9
$UNITMODE
 70
     0
  9
$VISRETAIN
 70
     1
  9
$PLINEGEN
 70
     0
  9
$PSLTSCALE
 70
     1
  0
ENDSEC
  0
SECTION
  2
TABLES
  0
TABLE
  2
VPORT
 70
     1
  0
VPORT
  2
*ACTIVE
 70
     0
 10
0.0
 20
0.0
 11
1.0
 21
1.0
 12
10.42990654205607
 22
4.5
 13
0.0
 23
0.0
 14
0.5
 24
0.5
 15
0.5
 25
0.5
 16
0.0
 26
0.0
 36
1.0
 17
0.0
 27
0.0
 37
0.0
 40
9.0
 41
1.972972972850329
 42
50.0
 43
0.0
 44
0.0
 50
0.0
 51
0.0
 71
     0
 72
   100
 73
     1
 74
     3
 75
     0
 76
     0
 77
     0
 78
     0
  0
ENDTAB
  0
TABLE
  2
LTYPE
 70
     1
  0
LTYPE
  2
CONTINUOUS
 70
     0
  3
Solid line
 72
    65
 73
     0
 40
0.0
  0
ENDTAB
  0
TABLE
  2
LAYER
 70
     3
  0
LAYER
  2
0
 70
     0
 62
     7
  6
CONTINUOUS
  0
LAYER
  2
切线
 70
     0
 62
     7
  6
CONTINUOUS
  0
LAYER
  2
刻线
 70
     0
 62
     1
  6
CONTINUOUS
  0
ENDTAB
  0
TABLE
  2
STYLE
 70
     1
  0
STYLE
  2
STANDARD
 70
     0
 40
0.0
 41
1.0
 50
0.0
 71
     0
 42
0.2
  3
txt
  4

  0
ENDTAB
  0
TABLE
  2
VIEW
 70
     0
  0
ENDTAB
  0
TABLE
  2
UCS
 70
     0
  0
ENDTAB
  0
TABLE
  2
APPID
 70
     1
  0
APPID
  2
ACAD
 70
     0
  0
ENDTAB
  0
TABLE
  2
DIMSTYLE
 70
     1
  0
DIMSTYLE
  2
STANDARD_ACAD
 70
     0
  3

  4

  5

  6

  7

 40
1.0
 41
0.18
 42
0.0625
 43
0.38
 44
0.18
 45
0.0
 46
0.0
 47
0.0
 48
0.0
140
0.18
141
0.09
142
0.0
143
25.4
144
1.0
145
0.0
146
1.0
147
0.09
 71
     0
 72
     0
 73
     1
 74
     1
 75
     0
 76
     0
 77
     0
 78
     0
170
     0
171
     2
172
     0
173
     0
174
     0
175
     0
176
     0
177
     0
178
     0
  0
ENDTAB
  0
ENDSEC
  0
SECTION
  2
BLOCKS
  0
BLOCK
  8
0
  2
$MODEL_SPACE
 70
     0
 10
0.0
 20
0.0
 30
0.0
  3
$MODEL_SPACE
  1

  0
ENDBLK
  5
21
  8
0
  0
BLOCK
 67
     1
  8
0
  2
$PAPER_SPACE
 70
     0
 10
0.0
 20
0.0
 30
0.0
  3
$PAPER_SPACE
  1

  0
ENDBLK
  5
1D
 67
     1
  8
0
  0
ENDSEC
  0
SECTION
  2
ENTITIES
  0
LINE
  5
6F
  8
切线
 62
     7
 10
16.80470250446476
 20
-63.30575337913567
 30
0.0
 11
15.4814791997614
 21
-64.62897668383903
 31
0.0
  0
LINE
  5
70
  8
切线
 62
     7
 10
15.4814791997614
 20
-64.62897668383903
 30
0.0
 11
15.4814791997614
 21
-111.128976683839
 31
0.0
  0
LINE
  5
71
  8
切线
 62
     7
 10
15.4814791997614
 20
-111.128976683839
 30
0.0
 11
16.80470250446472
 21
-112.4521999885423
 31
0.0
  0
LINE
  5
72
  8
切线
 62
     7
 10
84.80470250446493
 20
-62.95219998854255
 30
0.0
 11
83.4814791997614
 21
-61.62897668383903
 31
0.0
  0
LINE
  5
73
  8
切线
 62
     7
 10
83.4814791997614
 20
-61.62897668383903
 30
0.0
 11
70.48362895104316
 21
-61.62897668383903
 31
0.0
  0
LINE
  5
74
  8
切线
 62
     7
 10
70.48362895104316
 20
-61.62897668383903
 30
0.0
 11
69.48362895104322
 21
-62.62897668383903
 31
0.0
  0
LINE
  5
75
  8
切线
 62
     7
 10
69.48362895104322
 20
-62.62897668383903
 30
0.0
 11
41.48362895104322
 21
-62.62897668383903
 31
0.0
  0
LINE
  5
76
  8
切线
 62
     7
 10
41.48362895104322
 20
-62.62897668383903
 30
0.0
 11
40.48362895104322
 21
-61.62897668383903
 31
0.0
  0
LINE
  5
77
  8
切线
 62
     7
 10
40.48362895104322
 20
-61.62897668383903
 30
0.0
 11
18.4814791997614
 21
-61.62897668383903
 31
0.0
  0
LINE
  5
78
  8
切线
 62
     7
 10
18.4814791997614
 20
-61.62897668383903
 30
0.0
 11
17.15825589505803
 21
-62.95219998854239
 31
0.0
  0
LINE
  5
79
  8
切线
 62
     7
 10
85.158255895058
 20
-112.4521999885424
 30
0.0
 11
86.4814791997614
 21
-111.128976683839
 31
0.0
  0
LINE
  5
7A
  8
切线
 62
     7
 10
86.4814791997614
 20
-111.128976683839
 30
0.0
 11
86.4814791997614
 21
-95.32897668383896
 31
0.0
  0
ARC
  5
7B
  8
切线
 62
     7
 10
85.48147919976141
 20
-95.32897668383893
 30
0.0
 40
0.9999999999999858
 50
359.9999999999984
 51
90.00000000000082
  0
LINE
  5
7C
  8
切线
 62
     7
 10
85.4814791997614
 20
-94.32897668383896
 30
0.0
 11
78.31147919976138
 21
-94.32897668383896
 31
0.0
  0
LINE
  5
7D
  8
切线
 62
     7
 10
78.31147919976138
 20
-94.32897668383896
 30
0.0
 11
78.31147919976138
 21
-81.42897668383898
 31
0.0
  0
LINE
  5
7E
  8
切线
 62
     7
 10
78.31147919976138
 20
-81.42897668383898
 30
0.0
 11
85.4814791997614
 21
-81.42897668383898
 31
0.0
  0
ARC
  5
7F
  8
切线
 62
     7
 10
85.48147919976137
 20
-80.42897668383895
 30
0.0
 40
1.000000000000028
 50
270.0000000000016
 51
359.9999999999984
  0
LINE
  5
80
  8
切线
 62
     7
 10
86.4814791997614
 20
-80.42897668383898
 30
0.0
 11
86.4814791997614
 21
-64.62897668383903
 31
0.0
  0
LINE
  5
81
  8
切线
 62
     7
 10
86.4814791997614
 20
-64.62897668383903
 30
0.0
 11
85.15825589505795
 21
-63.30575337913558
 31
0.0
  0
LINE
  5
82
  8
切线
 62
     7
 10
17.15825589505798
 20
-112.8057533791356
 30
0.0
 11
18.4814791997614
 21
-114.128976683839
 31
0.0
  0
LINE
  5
83
  8
切线
 62
     7
 10
18.4814791997614
 20
-114.128976683839
 30
0.0
 11
30.48362895104316
 21
-114.128976683839
 31
0.0
  0
LINE
  5
84
  8
切线
 62
     7
 10
30.48362895104316
 20
-114.128976683839
 30
0.0
 11
31.48362895104322
 21
-113.128976683839
 31
0.0
  0
LINE
  5
85
  8
切线
 62
     7
 10
31.48362895104322
 20
-113.128976683839
 30
0.0
 11
69.48362895104322
 21
-113.128976683839
 31
0.0
  0
LINE
  5
86
  8
切线
 62
     7
 10
69.48362895104322
 20
-113.128976683839
 30
0.0
 11
70.48362895104316
 21
-114.128976683839
 31
0.0
  0
LINE
  5
87
  8
切线
 62
     7
 10
70.48362895104316
 20
-114.128976683839
 30
0.0
 11
83.4814791997614
 21
-114.128976683839
 31
0.0
  0
LINE
  5
88
  8
切线
 62
     7
 10
83.4814791997614
 20
-114.128976683839
 30
0.0
 11
84.80470250446471
 21
-112.8057533791357
 31
0.0
  0
LINE
  5
89
  8
切线
 62
     7
 10
1.141579199761477
 20
-114.128976683839
 30
0.0
 11
11.69157996270098
 21
-114.128976683839
 31
0.0
  0
LINE
  5
8A
  8
切线
 62
     7
 10
11.69157996270098
 20
-114.128976683839
 30
0.0
 11
11.69157996270098
 21
-105.877676683839
 31
0.0
  0
LINE
  5
8B
  8
切线
 62
     7
 10
11.69157996270098
 20
-105.877676683839
 30
0.0
 11
14.49157919976142
 21
-105.877676683839
 31
0.0
  0
LINE
  5
8C
  8
切线
 62
     7
 10
14.49157919976142
 20
-105.877676683839
 30
0.0
 11
14.49157919976142
 21
-95.87767668383901
 31
0.0
  0
LINE
  5
8D
  8
切线
 62
     7
 10
14.49157919976142
 20
-95.87767668383901
 30
0.0
 11
11.69157996270098
 21
-95.87767668383901
 31
0.0
  0
LINE
  5
8E
  8
切线
 62
     7
 10
11.69157996270098
 20
-95.87767668383901
 30
0.0
 11
11.69157996270098
 21
-72.87767668383901
 31
0.0
  0
LINE
  5
8F
  8
切线
 62
     7
 10
11.69157996270098
 20
-72.87767668383901
 30
0.0
 11
14.49157919976142
 21
-72.87767668383901
 31
0.0
  0
LINE
  5
90
  8
切线
 62
     7
 10
14.49157919976142
 20
-72.87767668383901
 30
0.0
 11
14.49157919976142
 21
-67.87767668383901
 31
0.0
  0
LINE
  5
91
  8
切线
 62
     7
 10
14.49157919976142
 20
-67.87767668383901
 30
0.0
 11
11.69157996270098
 21
-67.87767668383901
 31
0.0
  0
LINE
  5
92
  8
切线
 62
     7
 10
11.69157996270098
 20
-67.87767668383901
 30
0.0
 11
11.69157996270098
 21
-61.62897668383903
 31
0.0
  0
LINE
  5
93
  8
切线
 62
     7
 10
11.69157996270098
 20
-61.62897668383903
 30
0.0
 11
1.141579199761498
 21
-61.62897668383903
 31
0.0
  0
LINE
  5
94
  8
切线
 62
     7
 10
0.6415791997614457
 20
-61.62897668383903
 30
0.0
 11
-9.90842156317808
 21
-61.62897668383903
 31
0.0
  0
LINE
  5
95
  8
切线
 62
     7
 10
-9.90842156317808
 20
-61.62897668383903
 30
0.0
 11
-9.90842156317808
 21
-67.87767668383901
 31
0.0
  0
LINE
  5
96
  8
切线
 62
     7
 10
-9.90842156317808
 20
-67.87767668383901
 30
0.0
 11
-12.70842080023851
 21
-67.87767668383901
 31
0.0
  0
LINE
  5
97
  8
切线
 62
     7
 10
-12.70842080023851
 20
-67.87767668383901
 30
0.0
 11
-12.70842080023851
 21
-72.87767668383901
 31
0.0
  0
LINE
  5
98
  8
切线
 62
     7
 10
-12.70842080023851
 20
-72.87767668383901
 30
0.0
 11
-9.90842156317808
 21
-72.87767668383901
 31
0.0
  0
LINE
  5
99
  8
切线
 62
     7
 10
-9.90842156317808
 20
-72.87767668383901
 30
0.0
 11
-9.90842156317808
 21
-95.87767668383901
 31
0.0
  0
LINE
  5
9A
  8
切线
 62
     7
 10
-9.90842156317808
 20
-95.87767668383901
 30
0.0
 11
-12.70842080023851
 21
-95.87767668383901
 31
0.0
  0
LINE
  5
9B
  8
切线
 62
     7
 10
-12.70842080023851
 20
-95.87767668383901
 30
0.0
 11
-12.70842080023851
 21
-105.877676683839
 31
0.0
  0
LINE
  5
9C
  8
切线
 62
     7
 10
-12.70842080023851
 20
-105.877676683839
 30
0.0
 11
-9.90842156317808
 21
-105.877676683839
 31
0.0
  0
LINE
  5
9D
  8
切线
 62
     7
 10
-9.90842156317808
 20
-105.877676683839
 30
0.0
 11
-9.90842156317808
 21
-114.128976683839
 31
0.0
  0
LINE
  5
9E
  8
切线
 62
     7
 10
-9.90842156317808
 20
-114.128976683839
 30
0.0
 11
0.641579199761507
 21
-114.128976683839
 31
0.0
  0
LINE
  5
9F
  8
切线
 62
     7
 10
-15.23164563082098
 20
-63.30575337913565
 30
0.0
 11
-13.9084223261176
 21
-64.62897668383903
 31
0.0
  0
LINE
  5
A0
  8
切线
 62
     7
 10
-13.9084223261176
 20
-64.62897668383903
 30
0.0
 11
-13.9084223261176
 21
-111.128976683839
 31
0.0
  0
LINE
  5
A1
  8
切线
 62
     7
 10
-13.9084223261176
 20
-111.128976683839
 30
0.0
 11
-15.23164563082098
 21
-112.4521999885424
 31
0.0
  0
LINE
  5
A2
  8
切线
 62
     7
 10
-83.23164563082096
 20
-62.95219998854239
 30
0.0
 11
-81.9084223261176
 21
-61.62897668383903
 31
0.0
  0
LINE
  5
A3
  8
切线
 62
     7
 10
-81.9084223261176
 20
-61.62897668383903
 30
0.0
 11
-59.90292200620291
 21
-61.62897668383903
 31
0.0
  0
LINE
  5
A4
  8
切线
 62
     7
 10
-59.90292200620291
 20
-61.62897668383903
 30
0.0
 11
-58.41057207739931
 21
-62.97767668383904
 31
0.0
  0
LINE
  5
A5
  8
切线
 62
     7
 10
-58.41057207739931
 20
-62.97767668383904
 30
0.0
 11
-37.41057207739931
 21
-62.97767668383904
 31
0.0
  0
LINE
  5
A6
  8
切线
 62
     7
 10
-37.41057207739931
 20
-62.97767668383904
 30
0.0
 11
-35.91822214859582
 21
-61.62897668383903
 31
0.0
  0
LINE
  5
A7
  8
切线
 62
     7
 10
-35.91822214859582
 20
-61.62897668383903
 30
0.0
 11
-16.9084223261176
 21
-61.62897668383903
 31
0.0
  0
LINE
  5
A8
  8
切线
 62
     7
 10
-16.9084223261176
 20
-61.62897668383903
 30
0.0
 11
-15.58519902141423
 21
-62.9521999885424
 31
0.0
  0
LINE
  5
A9
  8
切线
 62
     7
 10
-15.58519902141425
 20
-112.8057533791356
 30
0.0
 11
-16.9084223261176
 21
-114.128976683839
 31
0.0
  0
LINE
  5
AA
  8
切线
 62
     7
 10
-16.9084223261176
 20
-114.128976683839
 30
0.0
 11
-35.91796083866365
 21
-114.128976683839
 31
0.0
  0
LINE
  5
AB
  8
切线
 62
     7
 10
-35.91796083866365
 20
-114.128976683839
 30
0.0
 11
-37.41057207739931
 21
-112.777676683839
 31
0.0
  0
LINE
  5
AC
  8
切线
 62
     7
 10
-37.41057207739931
 20
-112.777676683839
 30
0.0
 11
-58.41057207739931
 21
-112.777676683839
 31
0.0
  0
LINE
  5
AD
  8
切线
 62
     7
 10
-58.41057207739931
 20
-112.777676683839
 30
0.0
 11
-59.90318331613497
 21
-114.128976683839
 31
0.0
  0
LINE
  5
AE
  8
切线
 62
     7
 10
-59.90318331613497
 20
-114.128976683839
 30
0.0
 11
-81.9084223261176
 21
-114.128976683839
 31
0.0
  0
LINE
  5
AF
  8
切线
 62
     7
 10
-81.9084223261176
 20
-114.128976683839
 30
0.0
 11
-83.23164563082096
 21
-112.8057533791356
 31
0.0
  0
LINE
  5
B0
  8
切线
 62
     7
 10
-83.58519902141424
 20
-112.4521999885424
 30
0.0
 11
-84.9084223261176
 21
-111.128976683839
 31
0.0
  0
LINE
  5
B1
  8
切线
 62
     7
 10
-84.9084223261176
 20
-111.128976683839
 30
0.0
 11
-84.9084223261176
 21
-64.62897668383903
 31
0.0
  0
LINE
  5
B2
  8
切线
 62
     7
 10
-84.9084223261176
 20
-64.62897668383903
 30
0.0
 11
-83.58519902141424
 21
-63.30575337913566
 31
0.0
  0
LINE
  5
B3
  8
切线
 10
-86.9084223261176
 20
-116.128976683839
 30
0.0
 11
88.4814791997614
 21
-116.128976683839
 31
0.0
  0
LINE
  5
B4
  8
切线
 10
88.4814791997614
 20
-116.128976683839
 30
0.0
 11
88.4814791997614
 21
-59.62897668383903
 31
0.0
  0
LINE
  5
B5
  8
切线
 10
88.4814791997614
 20
-59.62897668383903
 30
0.0
 11
-86.9084223261176
 21
-59.62897668383903
 31
0.0
  0
LINE
  5
B6
  8
切线
 10
-86.9084223261176
 20
-59.62897668383903
 30
0.0
 11
-86.9084223261176
 21
-116.128976683839
 31
0.0
  0
LINE
  5
B8
  8
刻线
 10
-7.408421563178078
 20
-63.12897668383901
 30
0.0
 11
9.191579962700983
 21
-63.12897668383905
 31
0.0
  0
LINE
  5
B9
  8
刻线
 10
9.191579962700986
 20
-63.12897668383905
 30
0.0
 11
10.19157996270099
 21
-64.12897668383906
 31
0.0
  0
LINE
  5
BA
  8
刻线
 10
10.19157996270099
 20
-64.12897668383904
 30
0.0
 11
10.19157996270098
 21
-111.628976683839
 31
0.0
  0
LINE
  5
BB
  8
刻线
 10
10.19157996270098
 20
-111.628976683839
 30
0.0
 11
9.191579962700986
 21
-112.628976683839
 31
0.0
  0
LINE
  5
BC
  8
刻线
 10
9.191579962700985
 20
-112.628976683839
 30
0.0
 11
-7.408421563178084
 21
-112.628976683839
 31
0.0
  0
LINE
  5
BD
  8
刻线
 10
-7.408421563178084
 20
-112.628976683839
 30
0.0
 11
-8.408421563178084
 21
-111.628976683839
 31
0.0
  0
LINE
  5
BE
  8
刻线
 10
-8.408421563178084
 20
-111.6289766838389
 30
0.0
 11
-8.408421563178083
 21
-64.128976683839
 31
0.0
  0
LINE
  5
BF
  8
刻线
 10
-8.408421563178083
 20
-64.128976683839
 30
0.0
 11
-7.408421563178083
 21
-63.12897668383901
 31
0.0
  0
LINE
  5
C0
  8
刻线
 10
-37.9105720773993
 20
-88.0
 30
0.0
 11
-36.9105720773993
 21
-89.0
 31
0.0
  0
LINE
  5
C1
  8
刻线
 10
-36.9105720773993
 20
-89.0
 30
0.0
 11
-36.91057207739931
 21
-111.277676683839
 31
0.0
  0
LINE
  5
C2
  8
刻线
 10
-37.9105720773993
 20
-87.0
 30
0.0
 11
-54.0
 21
-87.0
 31
0.0
  0
LINE
  5
C3
  8
刻线
 10
-54.0
 20
-87.0
 30
0.0
 11
-54.0
 21
-88.0
 31
0.0
  0
LINE
  5
C4
  8
刻线
 10
-54.0
 20
-88.0
 30
0.0
 11
-37.9105720773993
 21
-88.0
 31
0.0
  0
LINE
  5
C5
  8
刻线
 10
-37.91057207739931
 20
-87.0
 30
0.0
 11
-36.9105720773993
 21
-86.0
 31
0.0
  0
LINE
  5
C6
  8
刻线
 10
-36.91057207739929
 20
-64.47767668383904
 30
0.0
 11
-36.9105720773993
 21
-86.0
 31
0.0
  0
LINE
  5
C7
  8
刻线
 10
-45.0
 20
-87.0
 30
0.0
 11
-45.0
 21
-88.0
 31
0.0
  0
LINE
  5
C8
  8
刻线
 10
-44.0
 20
-87.0
 30
0.0
 11
-44.0
 21
-88.0
 31
0.0
  0
LINE
  5
C9
  8
刻线
 10
-42.0
 20
-87.0
 30
0.0
 11
-42.0
 21
-88.0
 31
0.0
  0
LINE
  5
CA
  8
刻线
 10
-43.0
 20
-87.0
 30
0.0
 11
-43.0
 21
-88.0
 31
0.0
  0
LINE
  5
CB
  8
刻线
 10
-39.0
 20
-87.0
 30
0.0
 11
-39.0
 21
-88.0
 31
0.0
  0
LINE
  5
CC
  8
刻线
 10
-40.0
 20
-87.0
 30
0.0
 11
-40.0
 21
-88.0
 31
0.0
  0
LINE
  5
CD
  8
刻线
 10
-41.0
 20
-87.0
 30
0.0
 11
-41.0
 21
-88.0
 31
0.0
  0
LINE
  5
CE
  8
刻线
 10
-49.0
 20
-87.0
 30
0.0
 11
-49.0
 21
-88.0
 31
0.0
  0
LINE
  5
CF
  8
刻线
 10
-48.0
 20
-87.0
 30
0.0
 11
-48.0
 21
-88.0
 31
0.0
  0
LINE
  5
D0
  8
刻线
 10
-46.0
 20
-87.0
 30
0.0
 11
-46.0
 21
-88.0
 31
0.0
  0
LINE
  5
D1
  8
刻线
 10
-47.0
 20
-87.0
 30
0.0
 11
-47.0
 21
-88.0
 31
0.0
  0
LINE
  5
D2
  8
刻线
 10
-51.0
 20
-87.0
 30
0.0
 11
-51.0
 21
-88.0
 31
0.0
  0
LINE
  5
D3
  8
刻线
 10
-50.0
 20
-87.0
 30
0.0
 11
-50.0
 21
-88.0
 31
0.0
  0
LINE
  5
D4
  8
刻线
 10
-52.0
 20
-87.0
 30
0.0
 11
-52.0
 21
-88.0
 31
0.0
  0
LINE
  5
D5
  8
刻线
 10
-53.0
 20
-87.0
 30
0.0
 11
-53.0
 21
-88.0
 31
0.0
  0
LINE
  5
D6
  8
刻线
 10
-77.0
 20
-87.5
 30
0.0
 11
-54.0
 21
-87.5
 31
0.0
  0
LINE
  5
D7
  8
刻线
 10
-83.4084223261176
 20
-67.0
 30
0.0
 11
-78.00000000000055
 21
-67.0
 31
0.0
  0
LINE
  5
D8
  8
刻线
 10
-78.00000000000055
 20
-67.0
 30
0.0
 11
-77.0
 21
-68.0
 31
0.0
  0
LINE
  5
D9
  8
刻线
 10
-77.0
 20
-68.0
 30
0.0
 11
-77.0
 21
-106.9999999999997
 31
0.0
  0
LINE
  5
DA
  8
刻线
 10
-77.0
 20
-106.9999999999997
 30
0.0
 11
-78.0
 21
-108.0
 31
0.0
  0
LINE
  5
DB
  8
刻线
 10
-78.0
 20
-108.0
 30
0.0
 11
-83.4084223261176
 21
-108.0
 31
0.0
  0
LINE
  5
DC
  8
刻线
 10
-83.4084223261176
 20
-110.5076563402794
 30
0.0
 11
-83.4084223261176
 21
-65.25029702739869
 31
0.0
  0
LINE
  5
DD
  8
刻线
 10
-83.4084223261176
 20
-65.25029702739869
 30
0.0
 11
-81.28710198255797
 21
-63.12897668383903
 31
0.0
  0
LINE
  5
DE
  8
刻线
 10
-81.28710198255797
 20
-63.12897668383903
 30
0.0
 11
-60.48030250754657
 21
-63.12897668383903
 31
0.0
  0
LINE
  5
DF
  8
刻线
 10
-60.48030250754657
 20
-63.12897668383903
 30
0.0
 11
-58.98795257874296
 21
-64.47767668383904
 31
0.0
  0
LINE
  5
E0
  8
刻线
 10
-58.98795257874296
 20
-64.47767668383904
 30
0.0
 11
-36.83319157605563
 21
-64.47767668383904
 31
0.0
  0
LINE
  5
E1
  8
刻线
 10
-36.83319157605563
 20
-64.47767668383904
 30
0.0
 11
-35.34084164725212
 21
-63.12897668383902
 31
0.0
  0
LINE
  5
E2
  8
刻线
 10
-35.34084164725212
 20
-63.12897668383902
 30
0.0
 11
-17.52974266967723
 21
-63.12897668383903
 31
0.0
  0
LINE
  5
E3
  8
刻线
 10
-17.52974266967723
 20
-63.12897668383903
 30
0.0
 11
-15.4084223261176
 21
-65.25029702739866
 31
0.0
  0
LINE
  5
E4
  8
刻线
 10
-15.4084223261176
 20
-65.25029702739866
 30
0.0
 11
-15.4084223261176
 21
-110.5076563402794
 31
0.0
  0
LINE
  5
E5
  8
刻线
 10
-15.4084223261176
 20
-110.5076563402794
 30
0.0
 11
-17.52974266967723
 21
-112.628976683839
 31
0.0
  0
LINE
  5
E6
  8
刻线
 10
-17.52974266967723
 20
-112.628976683839
 30
0.0
 11
-35.33983014527821
 21
-112.628976683839
 31
0.0
  0
LINE
  5
E7
  8
刻线
 10
-35.33983014527821
 20
-112.628976683839
 30
0.0
 11
-36.83244138401387
 21
-111.277676683839
 31
0.0
  0
LINE
  5
E8
  8
刻线
 10
-36.83244138401387
 20
-111.277676683839
 30
0.0
 11
-58.98870277078475
 21
-111.277676683839
 31
0.0
  0
LINE
  5
E9
  8
刻线
 10
-58.98870277078475
 20
-111.277676683839
 30
0.0
 11
-60.48131400952042
 21
-112.628976683839
 31
0.0
  0
LINE
  5
EA
  8
刻线
 10
-60.48131400952042
 20
-112.628976683839
 30
0.0
 11
-81.28710198255797
 21
-112.628976683839
 31
0.0
  0
LINE
  5
EB
  8
刻线
 10
-81.28710198255797
 20
-112.628976683839
 30
0.0
 11
-83.40842232611759
 21
-110.5076563402794
 31
0.0
  0
CIRCLE
  5
EC
  8
刻线
 10
-67.96725790208644
 20
-110.0
 30
0.0
 40
1.0
210
0.0
220
0.0
230
-1.0
  0
LINE
  5
ED
  8
刻线
 10
66.96725790208644
 20
-109.0
 30
0.0
 11
67.96725790208644
 21
-110.0
 31
0.0
  0
LINE
  5
EE
  8
刻线
 10
57.96725790208644
 20
-67.0
 30
0.0
 11
56.96725790208644
 21
-66.0
 31
0.0
  0
CIRCLE
  5
EF
  8
刻线
 10
-56.96725790208644
 20
-66.0
 30
0.0
 40
1.0
210
0.0
220
0.0
230
-1.0
  0
LINE
  5
F0
  8
刻线
 10
53.0
 20
-67.0
 30
0.0
 11
54.0
 21
-66.0
 31
0.0
  0
CIRCLE
  5
F1
  8
刻线
 10
-19.0
 20
-89.75795336767803
 30
0.0
 40
1.0
210
0.0
220
0.0
230
-1.0
  0
LINE
  5
F2
  8
刻线
 10
19.0
 20
-89.75795336767803
 30
0.0
 11
20.0
 21
-90.75795336767803
 31
0.0
  0
CIRCLE
  5
F3
  8
刻线
 10
54.0
 20
-66.0
 30
0.0
 40
1.0
  0
CIRCLE
  5
F4
  8
刻线
 10
19.0
 20
-86.0
 30
0.0
 40
1.0
  0
LINE
  5
F5
  8
刻线
 10
19.0
 20
-86.0
 30
0.0
 11
20.0
 21
-85.0
 31
0.0
  0
LINE
  5
F6
  8
刻线
 10
20.0
 20
-110.0
 30
0.0
 11
21.0
 21
-109.0
 31
0.0
  0
CIRCLE
  5
F7
  8
刻线
 10
20.0
 20
-110.0
 30
0.0
 40
1.0
  0
LINE
  5
F8
  8
刻线
 10
38.74231596182213
 20
-103.2576840381779
 30
0.0
 11
40.62232331616099
 21
-101.377676683839
 31
0.0
  0
LINE
  5
F9
  8
刻线
 10
36.8623086074833
 20
-101.377676683839
 30
0.0
 11
38.74231596182214
 21
-103.2576840381779
 31
0.0
  0
LINE
  5
FA
  8
刻线
 10
35.8623086074833
 20
-101.377676683839
 30
0.0
 11
38.48795860748344
 21
-104.0033266838392
 31
0.0
  0
LINE
  5
FB
  8
刻线
 10
30.86230860748359
 20
-111.628976683839
 30
0.0
 11
41.11360860748357
 21
-101.377676683839
 31
0.0
  0
LINE
  5
FC
  8
刻线
 10
76.81147919976138
 20
-95.82897668383896
 30
0.0
 11
74.89628998172235
 21
-95.82897668383896
 31
0.0
  0
LINE
  5
FD
  8
刻线
 10
70.10494929460287
 20
-100.6203173709584
 30
0.0
 11
74.89628998172233
 21
-95.82897668383896
 31
0.0
  0
LINE
  5
FE
  8
刻线
 10
68.98362895104322
 20
-99.49899702739876
 30
0.0
 11
70.10494929460287
 21
-100.6203173709584
 31
0.0
  0
LINE
  5
FF
  8
刻线
 10
70.10494929460287
 20
-111.628976683839
 30
0.0
 11
70.10494929460287
 21
-100.6203173709584
 31
0.0
  0
LINE
  5
100
  8
刻线
 10
69.5
 20
-71.9826259784416
 30
0.0
 11
69.5
 21
-74.0
 31
0.0
  0
LINE
  5
101
  8
刻线
 10
69.5
 20
-74.0
 30
0.0
 11
70.3699926456612
 21
-74.8699926456612
 31
0.0
  0
LINE
  5
102
  8
刻线
 10
68.9836289510431
 20
-76.25635634027932
 30
0.0
 11
71.06124390362241
 21
-74.17874138770001
 31
0.0
  0
LINE
  5
103
  8
刻线
 10
67.10494929460258
 20
-74.37767668383901
 30
0.0
 11
70.10494929460287
 21
-71.37767668383871
 31
0.0
  0
LINE
  5
104
  8
刻线
 10
70.10494929460287
 20
-64.12897668383903
 30
0.0
 11
70.10494929460287
 21
-73.22244677868048
 31
0.0
  0
LINE
  5
105
  8
刻线
 10
70.10494929460287
 20
-73.22244677868048
 30
0.0
 11
76.81147919976138
 21
-79.92897668383898
 31
0.0
  0
LINE
  5
106
  8
刻线
 10
60.70621236347796
 20
-102.1888383419195
 30
0.0
 11
66.29378763652204
 21
-102.1888383419195
 31
0.0
  0
LINE
  5
107
  8
刻线
 10
33.0
 20
-88.12897668383899
 30
0.0
 11
33.0
 21
-94.75535336767803
 31
0.0
  0
LINE
  5
108
  8
刻线
 10
33.0
 20
-81.0
 30
0.0
 11
33.0
 21
-87.628976683839
 31
0.0
  0
LINE
  5
109
  8
刻线
 10
69.96725790208598
 20
-88.12897668383897
 30
0.0
 11
69.96725790208598
 21
-94.75535336767803
 31
0.0
  0
LINE
  5
10A
  8
刻线
 10
69.96725790208598
 20
-81.0
 30
0.0
 11
69.96725790208598
 21
-87.62897668383899
 31
0.0
  0
LINE
  5
10B
  8
刻线
 10
76.81147919976138
 20
-88.12897668383897
 30
0.0
 11
69.96725790208598
 21
-88.12897668383897
 31
0.0
  0
LINE
  5
10C
  8
刻线
 10
33.0
 20
-88.12897668383899
 30
0.0
 11
16.9814791997614
 21
-88.12897668383901
 31
0.0
  0
LINE
  5
10D
  8
刻线
 10
33.0
 20
-87.628976683839
 30
0.0
 11
16.9814791997614
 21
-87.62897668383901
 31
0.0
  0
LINE
  5
10E
  8
刻线
 10
76.81147919976138
 20
-87.62897668383897
 30
0.0
 11
69.96725790208598
 21
-87.62897668383899
 31
0.0
  0
LINE
  5
10F
  8
刻线
 10
65.48262597844155
 20
-103.0
 30
0.0
 11
61.51737402155845
 21
-103.0
 31
0.0
  0
LINE
  5
110
  8
刻线
 10
67.10494929460253
 20
-101.377676683839
 30
0.0
 11
65.48262597844155
 21
-103.0
 31
0.0
  0
LINE
  5
111
  8
刻线
 10
59.89505070539747
 20
-101.377676683839
 30
0.0
 11
61.51737402155845
 21
-103.0
 31
0.0
  0
LINE
  5
112
  8
刻线
 10
59.8950507053974
 20
-101.377676683839
 30
0.0
 11
35.8623086074833
 21
-101.377676683839
 31
0.0
  0
LINE
  5
113
  8
刻线
 10
68.96725790208598
 20
-95.75535336767803
 30
0.0
 11
69.96725790208598
 21
-94.75535336767803
 31
0.0
  0
LINE
  5
114
  8
刻线
 10
68.96725790208598
 20
-80.0
 30
0.0
 11
69.96725790208598
 21
-81.0
 31
0.0
  0
LINE
  5
115
  8
刻线
 10
34.0
 20
-95.75535336767803
 30
0.0
 11
33.0
 21
-94.75535336767803
 31
0.0
  0
LINE
  5
116
  8
刻线
 10
34.0
 20
-80.0
 30
0.0
 11
33.0
 21
-81.0
 31
0.0
  0
LINE
  5
117
  8
刻线
 10
55.48362895104322
 20
-64.12897668383903
 30
0.0
 11
55.48362895104322
 21
-74.37767668383901
 31
0.0
  0
LINE
  5
118
  8
刻线
 10
68.98362895104322
 20
-99.49899702739876
 30
0.0
 11
67.10494929460253
 21
-101.377676683839
 31
0.0
  0
LINE
  5
119
  8
刻线
 10
68.9836289510431
 20
-76.25635634027932
 30
0.0
 11
68.98362895104322
 21
-99.49899702739876
 31
0.0
  0
LINE
  5
11A
  8
刻线
 10
67.10494929460258
 20
-74.37767668383901
 30
0.0
 11
68.9836289510431
 21
-76.25635634027932
 31
0.0
  0
LINE
  5
11B
  8
刻线
 10
35.8623086074833
 20
-74.37767668383901
 30
0.0
 11
67.10494929460258
 21
-74.37767668383901
 31
0.0
  0
LINE
  5
11C
  8
刻线
 10
33.9836289510431
 20
-76.25635634027942
 30
0.0
 11
35.8623086074833
 21
-74.37767668383901
 31
0.0
  0
LINE
  5
11D
  8
刻线
 10
33.9836289510431
 20
-99.4989970273986
 30
0.0
 11
33.9836289510431
 21
-76.25635634027942
 31
0.0
  0
LINE
  5
11E
  8
刻线
 10
35.8623086074833
 20
-101.377676683839
 30
0.0
 11
33.9836289510431
 21
-99.4989970273986
 31
0.0
  0
LINE
  5
11F
  8
刻线
 10
21.74970297260134
 20
-65.25029702739866
 30
0.0
 11
23.87102331616097
 21
-63.12897668383903
 31
0.0
  0
LINE
  5
120
  8
刻线
 10
20.74970297260134
 20
-65.25029702739866
 30
0.0
 11
22.87102331616097
 21
-63.12897668383903
 31
0.0
  0
LINE
  5
121
  8
刻线
 10
18.74970297260134
 20
-65.25029702739866
 30
0.0
 11
39.74098826392386
 21
-65.25029702739866
 31
0.0
  0
LINE
  5
122
  8
刻线
 10
40.86230860748357
 20
-64.12897668383903
 30
0.0
 11
39.74098826392387
 21
-65.25029702739866
 31
0.0
  0
LINE
  5
123
  8
刻线
 10
18.74970297260134
 20
-65.25029702739866
 30
0.0
 11
18.0
 21
-66.0
 31
0.0
  0
LINE
  5
124
  8
刻线
 10
18.0
 20
-66.0
 30
0.0
 11
18.0
 21
-72.0
 31
0.0
  0
LINE
  5
125
  8
刻线
 10
18.0
 20
-72.0
 30
0.0
 11
16.9814791997614
 21
-73.0185208002386
 31
0.0
  0
LINE
  5
126
  8
刻线
 10
84.9814791997614
 20
-79.92897668383898
 30
0.0
 11
84.9814791997614
 21
-65.25029702739867
 31
0.0
  0
LINE
  5
127
  8
刻线
 10
84.9814791997614
 20
-65.25029702739867
 30
0.0
 11
82.86015885620175
 21
-63.12897668383903
 31
0.0
  0
LINE
  5
128
  8
刻线
 10
82.86015885620175
 20
-63.12897668383903
 30
0.0
 11
71.10494929460283
 21
-63.12897668383903
 31
0.0
  0
LINE
  5
129
  8
刻线
 10
71.10494929460283
 20
-63.12897668383903
 30
0.0
 11
70.10494929460287
 21
-64.12897668383903
 31
0.0
  0
LINE
  5
12A
  8
刻线
 10
70.10494929460287
 20
-64.12897668383903
 30
0.0
 11
40.86230860748357
 21
-64.12897668383903
 31
0.0
  0
LINE
  5
12B
  8
刻线
 10
40.86230860748357
 20
-64.12897668383903
 30
0.0
 11
39.86230860748357
 21
-63.12897668383903
 31
0.0
  0
LINE
  5
12C
  8
刻线
 10
39.86230860748357
 20
-63.12897668383903
 30
0.0
 11
19.10279954332104
 21
-63.12897668383903
 31
0.0
  0
LINE
  5
12D
  8
刻线
 10
19.10279954332104
 20
-63.12897668383903
 30
0.0
 11
16.9814791997614
 21
-65.25029702739866
 31
0.0
  0
LINE
  5
12E
  8
刻线
 10
16.9814791997614
 20
-65.25029702739866
 30
0.0
 11
16.9814791997614
 21
-110.5076563402794
 31
0.0
  0
LINE
  5
12F
  8
刻线
 10
16.9814791997614
 20
-110.5076563402794
 30
0.0
 11
19.10279954332103
 21
-112.628976683839
 31
0.0
  0
LINE
  5
130
  8
刻线
 10
19.10279954332103
 20
-112.628976683839
 30
0.0
 11
29.86230860748353
 21
-112.628976683839
 31
0.0
  0
LINE
  5
131
  8
刻线
 10
29.86230860748353
 20
-112.628976683839
 30
0.0
 11
30.86230860748359
 21
-111.628976683839
 31
0.0
  0
LINE
  5
132
  8
刻线
 10
30.86230860748359
 20
-111.628976683839
 30
0.0
 11
70.10494929460287
 21
-111.628976683839
 31
0.0
  0
LINE
  5
133
  8
刻线
 10
70.10494929460287
 20
-111.628976683839
 30
0.0
 11
71.10494929460286
 21
-112.628976683839
 31
0.0
  0
LINE
  5
134
  8
刻线
 10
71.10494929460286
 20
-112.628976683839
 30
0.0
 11
82.86015885620175
 21
-112.628976683839
 31
0.0
  0
LINE
  5
135
  8
刻线
 10
82.86015885620175
 20
-112.628976683839
 30
0.0
 11
84.9814791997614
 21
-110.5076563402794
 31
0.0
  0
LINE
  5
136
  8
刻线
 10
84.9814791997614
 20
-110.5076563402794
 30
0.0
 11
84.9814791997614
 21
-95.82897668383899
 31
0.0
  0
LINE
  5
137
  8
刻线
 10
84.9814791997614
 20
-95.82897668383899
 30
0.0
 11
76.81147919976138
 21
-95.82897668383896
 31
0.0
  0
LINE
  5
138
  8
刻线
 10
76.81147919976138
 20
-95.82897668383896
 30
0.0
 11
76.81147919976138
 21
-79.92897668383898
 31
0.0
  0
LINE
  5
139
  8
刻线
 10
76.81147919976138
 20
-79.92897668383898
 30
0.0
 11
84.9814791997614
 21
-79.92897668383898
 31
0.0
  0
LINE
  5
13A
  8
切线
 62
     7
 10
-36.91057207739931
 20
-107.377676683839
 30
0.0
 11
-36.91057207739931
 21
-104.377676683839
 31
0.0
  0
LINE
  5
13B
  8
切线
 62
     7
 10
-36.91057207739931
 20
-104.377676683839
 30
0.0
 11
-58.91057207739931
 21
-104.377676683839
 31
0.0
  0
LINE
  5
13C
  8
切线
 62
     7
 10
-58.91057207739931
 20
-104.377676683839
 30
0.0
 11
-58.91057207739931
 21
-107.377676683839
 31
0.0
  0
LINE
  5
13D
  8
切线
 62
     7
 10
-58.91057207739931
 20
-107.377676683839
 30
0.0
 11
-36.91057207739931
 21
-107.377676683839
 31
0.0
  0
LINE
  5
13E
  8
切线
 62
     7
 10
-36.91057207739931
 20
-71.37767668383901
 30
0.0
 11
-36.91057207739931
 21
-68.37767668383901
 31
0.0
  0
LINE
  5
13F
  8
切线
 62
     7
 10
-36.91057207739931
 20
-68.37767668383901
 30
0.0
 11
-58.91057207739931
 21
-68.37767668383901
 31
0.0
  0
LINE
  5
140
  8
切线
 62
     7
 10
-58.91057207739931
 20
-68.37767668383901
 30
0.0
 11
-58.91057207739931
 21
-71.37767668383901
 31
0.0
  0
LINE
  5
141
  8
切线
 62
     7
 10
-58.91057207739931
 20
-71.37767668383901
 30
0.0
 11
-36.91057207739931
 21
-71.37767668383901
 31
0.0
  0
LINE
  5
142
  8
切线
 62
     7
 10
-24.51852232611759
 20
-82.37767668383901
 30
0.0
 11
-22.91852232611762
 21
-82.37767668383901
 31
0.0
  0
LINE
  5
143
  8
切线
 62
     7
 10
-22.91852232611762
 20
-82.37767668383901
 30
0.0
 11
-22.91852232611762
 21
-79.37767668383901
 31
0.0
  0
LINE
  5
144
  8
切线
 62
     7
 10
-22.91852232611762
 20
-79.37767668383901
 30
0.0
 11
-24.51852232611759
 21
-79.37767668383901
 31
0.0
  0
LINE
  5
145
  8
切线
 62
     7
 10
-24.51852232611759
 20
-79.37767668383901
 30
0.0
 11
-24.51852232611759
 21
-82.37767668383901
 31
0.0
  0
LINE
  5
146
  8
切线
 62
     7
 10
-20.11852232611761
 20
-105.877676683839
 30
0.0
 11
-20.11852232611761
 21
-95.87767668383901
 31
0.0
  0
LINE
  5
147
  8
切线
 62
     7
 10
-20.11852232611761
 20
-95.87767668383901
 30
0.0
 11
-22.91852232611762
 21
-95.87767668383901
 31
0.0
  0
LINE
  5
148
  8
切线
 62
     7
 10
-22.91852232611762
 20
-95.87767668383901
 30
0.0
 11
-22.91852232611762
 21
-105.877676683839
 31
0.0
  0
LINE
  5
149
  8
切线
 62
     7
 10
-22.91852232611762
 20
-105.877676683839
 30
0.0
 11
-20.11852232611761
 21
-105.877676683839
 31
0.0
  0
LINE
  5
14A
  8
切线
 62
     7
 10
26.09157919976138
 20
-82.37767668383901
 30
0.0
 11
24.49157919976142
 21
-82.37767668383901
 31
0.0
  0
LINE
  5
14B
  8
切线
 62
     7
 10
24.49157919976142
 20
-82.37767668383901
 30
0.0
 11
24.49157919976142
 21
-79.37767668383901
 31
0.0
  0
LINE
  5
14C
  8
切线
 62
     7
 10
24.49157919976142
 20
-79.37767668383901
 30
0.0
 11
26.09157919976138
 21
-79.37767668383901
 31
0.0
  0
LINE
  5
14D
  8
切线
 62
     7
 10
26.09157919976138
 20
-79.37767668383901
 30
0.0
 11
26.09157919976138
 21
-82.37767668383901
 31
0.0
  0
LINE
  5
14E
  8
切线
 62
     7
 10
21.69157919976141
 20
-105.877676683839
 30
0.0
 11
21.69157919976141
 21
-95.87767668383901
 31
0.0
  0
LINE
  5
14F
  8
切线
 62
     7
 10
21.69157919976141
 20
-95.87767668383901
 30
0.0
 11
24.49157919976142
 21
-95.87767668383901
 31
0.0
  0
LINE
  5
150
  8
切线
 62
     7
 10
24.49157919976142
 20
-95.87767668383901
 30
0.0
 11
24.49157919976142
 21
-105.877676683839
 31
0.0
  0
LINE
  5
151
  8
切线
 62
     7
 10
24.49157919976142
 20
-105.877676683839
 30
0.0
 11
21.69157919976141
 21
-105.877676683839
 31
0.0
  0
LINE
  5
152
  8
切线
 62
     7
 10
21.69157919976141
 20
-72.87767668383901
 30
0.0
 11
21.69157919976141
 21
-67.87767668383901
 31
0.0
  0
LINE
  5
153
  8
切线
 62
     7
 10
21.69157919976141
 20
-67.87767668383901
 30
0.0
 11
24.49157919976142
 21
-67.87767668383901
 31
0.0
  0
LINE
  5
154
  8
切线
 62
     7
 10
24.49157919976142
 20
-67.87767668383901
 30
0.0
 11
24.49157919976142
 21
-72.87767668383901
 31
0.0
  0
LINE
  5
155
  8
切线
 62
     7
 10
24.49157919976142
 20
-72.87767668383901
 30
0.0
 11
21.69157919976141
 21
-72.87767668383901
 31
0.0
  0
LINE
  5
156
  8
切线
 62
     7
 10
-20.11852232611761
 20
-72.87767668383901
 30
0.0
 11
-20.11852232611761
 21
-67.87767668383901
 31
0.0
  0
LINE
  5
157
  8
切线
 62
     7
 10
-20.11852232611761
 20
-67.87767668383901
 30
0.0
 11
-22.91852232611762
 21
-67.87767668383901
 31
0.0
  0
LINE
  5
158
  8
切线
 62
     7
 10
-22.91852232611762
 20
-67.87767668383901
 30
0.0
 11
-22.91852232611762
 21
-72.87767668383901
 31
0.0
  0
LINE
  5
159
  8
切线
 62
     7
 10
-22.91852232611762
 20
-72.87767668383901
 30
0.0
 11
-20.11852232611761
 21
-72.87767668383901
 31
0.0
  0
LINE
  5
15A
  8
切线
 62
     7
 10
-5.608420800238491
 20
-105.177676683839
 30
0.0
 11
-5.608420800238491
 21
-67.17767668383897
 31
0.0
  0
LINE
  5
15B
  8
切线
 62
     7
 10
-5.608420800238491
 20
-67.17767668383897
 30
0.0
 11
7.391579199761509
 21
-67.17767668383897
 31
0.0
  0
LINE
  5
15C
  8
切线
 62
     7
 10
7.391579199761509
 20
-67.17767668383897
 30
0.0
 11
7.391579199761509
 21
-105.177676683839
 31
0.0
  0
LINE
  5
15D
  8
切线
 62
     7
 10
7.391579199761509
 20
-105.177676683839
 30
0.0
 11
-5.608420800238491
 21
-105.177676683839
 31
0.0
  0
LINE
  5
15E
  8
切线
 62
     7
 10
50.48362895104316
 20
-100.877676683839
 30
0.0
 11
40.48362895104316
 21
-100.877676683839
 31
0.0
  0
LINE
  5
15F
  8
切线
 62
     7
 10
40.48362895104316
 20
-100.877676683839
 30
0.0
 11
39.48362895104316
 21
-99.87767668383901
 31
0.0
  0
LINE
  5
160
  8
切线
 62
     7
 10
39.48362895104316
 20
-99.87767668383901
 30
0.0
 11
36.48362895104299
 21
-99.87767668383901
 31
0.0
  0
LINE
  5
161
  8
切线
 62
     7
 10
36.48362895104299
 20
-99.87767668383901
 30
0.0
 11
35.4836289510431
 21
-98.87767668383901
 31
0.0
  0
LINE
  5
162
  8
切线
 62
     7
 10
35.4836289510431
 20
-98.87767668383901
 30
0.0
 11
35.4836289510431
 21
-76.87767668383901
 31
0.0
  0
LINE
  5
163
  8
切线
 62
     7
 10
35.4836289510431
 20
-76.87767668383901
 30
0.0
 11
36.48362895104299
 21
-75.87767668383901
 31
0.0
  0
LINE
  5
164
  8
切线
 62
     7
 10
36.48362895104299
 20
-75.87767668383901
 30
0.0
 11
66.48362895104299
 21
-75.87767668383901
 31
0.0
  0
LINE
  5
165
  8
切线
 62
     7
 10
66.48362895104299
 20
-75.87767668383901
 30
0.0
 11
67.4836289510431
 21
-76.87767668383901
 31
0.0
  0
LINE
  5
166
  8
切线
 62
     7
 10
67.4836289510431
 20
-76.87767668383901
 30
0.0
 11
67.48362895104322
 21
-98.87767668383901
 31
0.0
  0
LINE
  5
167
  8
切线
 62
     7
 10
67.48362895104322
 20
-98.87767668383901
 30
0.0
 11
66.48362895104299
 21
-99.87767668383901
 31
0.0
  0
LINE
  5
168
  8
切线
 62
     7
 10
66.48362895104299
 20
-99.87767668383901
 30
0.0
 11
51.48362895104316
 21
-99.87767668383901
 31
0.0
  0
LINE
  5
169
  8
切线
 62
     7
 10
51.48362895104316
 20
-99.87767668383901
 30
0.0
 11
50.48362895104316
 21
-100.877676683839
 31
0.0
  0
CIRCLE
  5
16A
  8
切线
 62
     7
 10
-82.49157919976142
 20
-105.377676683839
 30
0.0
 40
1.5
210
0.0
220
0.0
230
-1.0
  0
CIRCLE
  5
16B
  8
切线
 62
     7
 10
-32.49157919976141
 20
-105.377676683839
 30
0.0
 40
1.5
210
0.0
220
0.0
230
-1.0
  0
CIRCLE
  5
16C
  8
切线
 62
     7
 10
-32.49157919976142
 20
-70.37767668383901
 30
0.0
 40
1.5
210
0.0
220
0.0
230
-1.0
  0
CIRCLE
  5
16D
  8
切线
 62
     7
 10
-82.4915791997614
 20
-70.37767668383903
 30
0.0
 40
1.500000000000014
210
0.0
220
0.0
230
-1.0
  0
CIRCLE
  5
16E
  8
切线
 62
     7
 10
-0.8915791997614958
 20
-110.877676683839
 30
0.0
 40
1.0
210
0.0
220
0.0
230
-1.0
  0
CIRCLE
  5
16F
  8
切线
 62
     7
 10
-80.91852232611761
 20
-105.377676683839
 30
0.0
 40
1.5
  0
CIRCLE
  5
170
  8
切线
 62
     7
 10
-30.91852232611762
 20
-105.377676683839
 30
0.0
 40
1.5
  0
CIRCLE
  5
171
  8
切线
 62
     7
 10
-30.91852232611763
 20
-70.37767668383901
 30
0.0
 40
1.5
  0
CIRCLE
  5
172
  8
切线
 62
     7
 10
-80.91852232611762
 20
-70.37767668383901
 30
0.0
 40
1.5
  0
ENDSEC
  0
EOF
